<mxfile host="Electron" agent="Mozilla/5.0 (Macintosh; Intel Mac OS X 10_15_7) AppleWebKit/537.36 (KHTML, like Gecko) draw.io/26.2.15 Chrome/134.0.6998.205 Electron/35.2.1 Safari/537.36" version="26.2.15">
  <diagram id="medallion_architecture" name="Project Scout Medallion Architecture">
    <mxGraphModel dx="1215" dy="673" grid="1" gridSize="10" guides="1" tooltips="1" connect="1" arrows="1" fold="1" page="1" pageScale="1" pageWidth="1100" pageHeight="850" math="0" shadow="0">
      <root>
        <mxCell id="0"/>
        <mxCell id="1" parent="0"/>
        <mxCell id="bronze_layer" value="🏺 Raw Ingestion" style="rounded=0;whiteSpace=wrap;html=1;fillColor=#FFCF0033;strokeColor=#FFCF00;align=left;verticalAlign=top;fontStyle=1;class=raw-ingest" parent="1" vertex="1">
          <mxGeometry x="100" y="150" width="700" height="150" as="geometry"/>
        </mxCell>
        <mxCell id="silver_layer" value="🥈 Staging &amp; Cleansing" style="rounded=0;whiteSpace=wrap;html=1;fillColor=#4B556333;strokeColor=#4B5563;align=left;verticalAlign=top;fontStyle=1;class=staging" parent="1" vertex="1">
          <mxGeometry x="100" y="350" width="700" height="150" as="geometry"/>
        </mxCell>
        <mxCell id="gold_layer" value="🏆 Curated Business Tables" style="rounded=0;whiteSpace=wrap;html=1;fillColor=#FFD70033;strokeColor=#FFD700;align=left;verticalAlign=top;fontStyle=1;class=curation" parent="1" vertex="1">
          <mxGeometry x="100" y="550" width="700" height="150" as="geometry"/>
        </mxCell>
        <mxCell id="supporting_layer" value="Supporting Services" style="rounded=0;whiteSpace=wrap;html=1;fillColor=#dae8fc33;strokeColor=#6c8ebf;align=left;verticalAlign=top;fontStyle=1" parent="1" vertex="1">
          <mxGeometry x="820" y="250" width="180" height="350" as="geometry"/>
        </mxCell>
        <mxCell id="title" value="Project Scout - Medallion Architecture" style="text;html=1;strokeColor=none;fillColor=none;align=center;verticalAlign=middle;whiteSpace=wrap;rounded=0;fontSize=24;fontStyle=1" parent="1" vertex="1">
          <mxGeometry x="250" y="40" width="600" height="40" as="geometry"/>
        </mxCell>
        <mxCell id="raspberry_pi" value="Raspberry Pi Devices" style="rounded=1;whiteSpace=wrap;html=1;fillColor=#4CAF50;strokeColor=#4CAF50;fontColor=#FFFFFF;fontSize=10;" parent="1" vertex="1">
          <mxGeometry x="110" y="170" width="80" height="40" as="geometry"/>
        </mxCell>
        <mxCell id="iot_hub" value="Azure IoT Hub" style="shape=image;verticalLabelPosition=bottom;labelBackgroundColor=none;verticalAlign=top;aspect=fixed;imageAspect=0;image=data:image/svg+xml,PHN2ZyBpZD0iYWE5YjZjZDEtNDdlYy00NGRiLWJiZjEtOTU4MjAzYjU2MDFmIiB4bWxucz0iaHR0cDovL3d3dy53My5vcmcvMjAwMC9zdmciIHdpZHRoPSIxOCIgaGVpZ2h0PSIxOCIgdmlld0JveD0iMCAwIDE4IDE4Ij48ZGVmcz48bGluZWFyR3JhZGllbnQgaWQ9ImZhYWViNjliLTMwMzUtNDU3Ny05Y2IxLWRkZDNmYmE3OTFlMyIgeDE9IjkuMTMiIHkxPSIxOC44MSIgeDI9IjguODUiIHkyPSItOC4xIiBncmFkaWVudFVuaXRzPSJ1c2VyU3BhY2VPblVzZSI+PHN0b3Agb2Zmc2V0PSIwIiBzdG9wLWNvbG9yPSIjMTk4YWIzIiAvPjxzdG9wIG9mZnNldD0iMCIgc3RvcC1jb2xvcj0iIzE5OGFiMyIgLz48c3RvcCBvZmZzZXQ9IjAuMDkiIHN0b3AtY29sb3I9IiMyMmE1Y2IiIC8+PHN0b3Agb2Zmc2V0PSIwLjE5IiBzdG9wLWNvbG9yPSIjMjliYWRlIiAvPjxzdG9wIG9mZnNldD0iMC4yOSIgc3RvcC1jb2xvcj0iIzJlYzllYiIgLz48c3RvcCBvZmZzZXQ9IjAuNDIiIHN0b3AtY29sb3I9IiMzMWQxZjMiIC8+PHN0b3Agb2Zmc2V0PSIwLjYyIiBzdG9wLWNvbG9yPSIjMzJkNGY1IiAvPjwvbGluZWFyR3JhZGllbnQ+PC9kZWZzPjxjaXJjbGUgaWQ9ImZhM2EyMmU5LWU0ZTgtNDZhMS1iYzA5LWY5NTMyNzQ3YzczOSIgY3g9IjExLjQiIGN5PSI4LjQ0IiByPSIxLjk3IiBmaWxsPSIjZmZmIiAvPjxjaXJjbGUgaWQ9ImViMjE0NDE2LTY3OTEtNDkzNC1hYzBjLTM1YWZhYTgyOWY2ZSIgY3g9IjE0LjciIGN5PSIxNC4zIiByPSIxLjU1IiBmaWxsPSIjZmZmIiAvPjxjaXJjbGUgaWQ9ImE0NDI0NDEzLWI5MWYtNDhkYS1hZWRkLTM5ZTNhOTc4YjQzMCIgY3g9IjguNTciIGN5PSIxMy4yNCIgcj0iMS4zMyIgZmlsbD0iI2ZmZiIgLz48Y2lyY2xlIGlkPSJmN2VjZmMxYS0zMjY4LTQ3MWItOTQ2NC01NzAyM2JmYzljYzQiIGN4PSI3LjYxIiBjeT0iMy4xMSIgcj0iMS42NSIgZmlsbD0iI2ZmZiIgLz48Y2lyY2xlIGlkPSJiNDM4ODkzOC1hZDgwLTQxYjQtYjcyOS01YzIxZTNlYWIzMjAiIGN4PSIzLjE5IiBjeT0iOS4xOSIgcj0iMS4zMyIgZmlsbD0iI2ZmZiIgLz48cG9seWdvbiBwb2ludHM9IjE1LjA2IDEzLjk5IDExLjczIDguMTYgMTEuNCA4LjM1IDExLjY3IDguMTUgNy45IDIuNzkgNy4yMSAzLjI5IDEwLjU1IDguMDQgMy4xNSA4LjY1IDMuMjIgOS41MSAxMC41NSA4LjkgOC4xMiAxMi45NCA4Ljg1IDEzLjM4IDExLjM1IDkuMjIgMTQuMzIgMTQuNDEgMTUuMDYgMTMuOTkiIGZpbGw9IiM5NDk0OTQiIC8+PGc+PHBhdGggZD0iTTE3LjUzLDEuMjNoMEEuNzMuNzMsMCwwLDAsMTYuOC41SDEzYS4zNi4zNiwwLDAsMC0uMzYuMzZWMi4yN2EuMzYuMzYsMCwwLDAsLjM2LjM2aDIuMzV2Mi4zYS4zOC4zOCwwLDAsMCwuMzcuMzdoMS40YS4zOC4zOCwwLDAsMCwuMzctLjM3VjEuMjNaIiBmaWxsPSIjOTQ5NDk0IiAvPjxwYXRoIGQ9Ik01LDE1LjM3SDIuNjF2LTIuM2EuMzguMzgsMCwwLDAtLjM3LS4zN0guODRhLjM4LjM4LDAsMCwwLS4zNy4zN3YzLjdoMGEuNzMuNzMsMCwwLDAsLjczLjcySDVhLjM2LjM2LDAsMCwwLC4zNi0uMzZWMTUuNzNBLjM2LjM2LDAsMCwwLDUsMTUuMzdaIiBmaWxsPSIjOTQ5NDk0IiAvPjwvZz48cGF0aCBkPSJNMTEuNCw2LjQ5YTIsMiwwLDEsMS0yLDEuOTVBMiwyLDAsMCwxLDExLjQsNi40OVpNNiwzLjExQTEuNjYsMS42NiwwLDEsMCw3LjYyLDEuNDYsMS42NSwxLjY1LDAsMCwwLDYsMy4xMVpNMS44Niw5LjE4QTEuMzMsMS4zMywwLDEsMCwzLjE5LDcuODUsMS4zMywxLjMzLDAsMCwwLDEuODYsOS4xOFptNS4zOCw0LjA1QTEuMzQsMS4zNCwwLDEsMCw4LjU4LDExLjksMS4zMywxLjMzLDAsMCwwLDcuMjQsMTMuMjNabTUuOTIsMS4wN2ExLjU1LDEuNTUsMCwxLDAsMS41NS0xLjU0QTEuNTMsMS41MywwLDAsMCwxMy4xNiwxNC4zWiIgZmlsbD0idXJsKCNmYWFlYjY5Yi0zMDM1LTQ1NzctOWNiMS1kZGQzZmJhNzkxZTMpIiAvPjwvc3ZnPg==;fontSize=10;" parent="1" vertex="1">
          <mxGeometry x="275" y="165" width="50" height="50" as="geometry"/>
        </mxCell>
        <mxCell id="data_lake_bronze" value="Azure Data Lake (Raw)" style="shape=image;verticalLabelPosition=bottom;labelBackgroundColor=none;verticalAlign=top;aspect=fixed;imageAspect=0;image=data:image/svg+xml,PHN2ZyBpZD0iYjYzMGE2MzEtZTk1MS00ODc0LWJlY2QtMTkzYzkwZTlkMzk5IiB4bWxucz0iaHR0cDovL3d3dy53My5vcmcvMjAwMC9zdmciIHdpZHRoPSIxOCIgaGVpZ2h0PSIxOCIgdmlld0JveD0iMCAwIDE4IDE4Ij48ZGVmcz48bGluZWFyR3JhZGllbnQgaWQ9ImU1NmY2MWU3LWQxZWYtNGE0Yy1iNzE0LTVjMmU1NzY1NjI1NyIgeDE9IjkiIHkxPSIxNy45OSIgeDI9IjkiIHkyPSItMS40MiIgZ3JhZGllbnRVbml0cz0idXNlclNwYWNlT25Vc2UiPjxzdG9wIG9mZnNldD0iMCIgc3RvcC1jb2xvcj0iIzAwNzhkNCIgLz48c3RvcCBvZmZzZXQ9IjAuMTQiIHN0b3AtY29sb3I9IiMwNzdiZDYiIC8+PHN0b3Agb2Zmc2V0PSIwLjM0IiBzdG9wLWNvbG9yPSIjMWE4M2RiIiAvPjxzdG9wIG9mZnNldD0iMC41OSIgc3RvcC1jb2xvcj0iIzM5OTBlNCIgLz48c3RvcCBvZmZzZXQ9IjAuODIiIHN0b3AtY29sb3I9IiM1ZWEwZWYiIC8+PC9saW5lYXJHcmFkaWVudD48bGluZWFyR3JhZGllbnQgaWQ9ImEwY2VmNDliLTE5MTEtNDhjZC05YjJkLTkxYzVkMTBiNTdkZiIgeDE9IjcuOTciIHkxPSIxNi41MSIgeDI9IjcuOTciIHkyPSI0Ljg0IiBncmFkaWVudFVuaXRzPSJ1c2VyU3BhY2VPblVzZSI+PHN0b3Agb2Zmc2V0PSIwIiBzdG9wLWNvbG9yPSIjOTQ5NDk0IiAvPjxzdG9wIG9mZnNldD0iMC4zMSIgc3RvcC1jb2xvcj0iI2I5YjliOSIgLz48c3RvcCBvZmZzZXQ9IjAuNzciIHN0b3AtY29sb3I9IiNlY2VjZWMiIC8+PHN0b3Agb2Zmc2V0PSIxIiBzdG9wLWNvbG9yPSIjZmZmIiAvPjwvbGluZWFyR3JhZGllbnQ+PC9kZWZzPjxwYXRoIGQ9Ik0xOCwxMC4yNWE0LjA2LDQuMDYsMCwwLDAtMy41MS0zLjg5QTUuMSw1LjEsMCwwLDAsOS4yNCwxLjQ5YTUuMjUsNS4yNSwwLDAsMC01LDMuNDFBNC44LDQuOCwwLDAsMCwwLDkuNTRhNC45LDQuOSwwLDAsMCw1LjA3LDQuNzFsLjQ0LDBoOC4yMWExLjQ2LDEuNDYsMCwwLDAsLjIyLDBBNC4xLDQuMSwwLDAsMCwxOCwxMC4yNVoiIGZpbGw9InVybCgjZTU2ZjYxZTctZDFlZi00YTRjLWI3MTQtNWMyZTU3NjU2MjU3KSIgLz48cGF0aCBkPSJNMTIuMTMsNi4ySDUuNTZhLjA5LjA5LDAsMCwxLS4xLS4xVjQuOTRhLjExLjExLDAsMCwwLS4xOC0uMDdsLTIsMmEuMS4xLDAsMCwwLDAsLjE0bDIsMmEuMTEuMTEsMCwwLDAsLjE4LS4wOFY3LjczYS4xLjEsMCwwLDEsLjEtLjFoMVYxNmEuNTIuNTIsMCwwLDAsLjUyLjUyaDVhLjUyLjUyLDAsMCwwLC41Mi0uNTJWNi43MkEuNTIuNTIsMCwwLDAsMTIuMTMsNi4yWiIgZmlsbD0idXJsKCNhMGNlZjQ5Yi0xOTExLTQ4Y2QtOWIyZC05MWM1ZDEwYjU3ZGYpIiAvPjxnPjxwYXRoIGQ9Ik03LjQ5LDkuODJhLjY1LjY1LDAsMCwxLC42Ni0uNjZoM2EuNjYuNjYsMCwwLDEsLjY2LjY2aDBhLjY2LjY2LDAsMCwxLS42Ni42NWgtM2EuNjUuNjUsMCwwLDEtLjY2LS42NVoiIGZpbGw9IiMwMDMwNjciIC8+PHBhdGggZD0iTTcuNDksNy44NmEuNjYuNjYsMCwwLDEsLjY2LS42NmgzYS42Ny42NywwLDAsMSwuNjYuNjZoMGEuNjcuNjcsMCwwLDEtLjY2LjY2aC0zYS42Ni42NiwwLDAsMS0uNjYtLjY2WiIgZmlsbD0iIzAwMzA2NyIgLz48Y2lyY2xlIGN4PSI4LjE3IiBjeT0iNy44NiIgcj0iMC40NCIgZmlsbD0iIzUwZTZmZiIgLz48Y2lyY2xlIGN4PSI4LjE3IiBjeT0iOS44MiIgcj0iMC40NCIgZmlsbD0iIzUwZTZmZiIgLz48L2c+PHBhdGggZD0iTTkuODgsMTMuNTlsLTIsMmEuMTEuMTEsMCwwLDEtLjE4LS4wOFYxNC4zM2EuMS4xLDAsMCwwLS4xLS4xSDYuNTZWMTIuOEg3LjYzYS4wOS4wOSwwLDAsMCwuMS0uMVYxMS41NGEuMTEuMTEsMCwwLDEsLjE4LS4wN2wyLDJBLjEuMSwwLDAsMSw5Ljg4LDEzLjU5WiIgZmlsbD0iIzAwNzhkNCIgLz48L3N2Zz4=;fontSize=10;" parent="1" vertex="1">
          <mxGeometry x="425" y="165" width="50" height="50" as="geometry"/>
        </mxCell>
        <mxCell id="databricks" value="Azure Databricks" style="shape=image;verticalLabelPosition=bottom;labelBackgroundColor=none;verticalAlign=top;aspect=fixed;imageAspect=0;image=data:image/svg+xml,PHN2ZyBpZD0iZjJmNTcwMWUtY2IzYi00ZDZmLWI0MDctNTg2NmVjNWI3Nzg0IiB4bWxucz0iaHR0cDovL3d3dy53My5vcmcvMjAwMC9zdmciIHdpZHRoPSIxOCIgaGVpZ2h0PSIxOCIgdmlld0JveD0iMCAwIDE4IDE4Ij48ZGVmcz48bGluZWFyR3JhZGllbnQgaWQ9ImE4OTE5MDFiLTc5YWUtNDkwYS04NTY4LTljNDMzNDQxN2QzNSIgeDE9IjkiIHkxPSI1LjM4IiB4Mj0iOSIgZ3JhZGllbnRVbml0cz0idXNlclNwYWNlT25Vc2UiPjxzdG9wIG9mZnNldD0iMC4xOTkiIHN0b3AtY29sb3I9IiMwMDViYTEiIC8+PHN0b3Agb2Zmc2V0PSIxIiBzdG9wLWNvbG9yPSIjMDA3OGQ0IiAvPjwvbGluZWFyR3JhZGllbnQ+PGxpbmVhckdyYWRpZW50IGlkPSJiYmRhYTAwOS0yMjgxLTRkYTgtOWU4OS02ZjQxNjg5ZTkxYTciIHgxPSI5IiB5MT0iMTIuNzEzIiB4Mj0iOSIgeTI9IjUuMjg3IiBncmFkaWVudFVuaXRzPSJ1c2VyU3BhY2VPblVzZSI+PHN0b3Agb2Zmc2V0PSIwIiBzdG9wLWNvbG9yPSIjMTk4YWIzIiAvPjxzdG9wIG9mZnNldD0iMC4xNzIiIHN0b3AtY29sb3I9IiMzMmJlZGQiIC8+PHN0b3Agb2Zmc2V0PSIwLjUiIHN0b3AtY29sb3I9IiM1MGU2ZmYiIC8+PHN0b3Agb2Zmc2V0PSIwLjUiIHN0b3AtY29sb3I9IiM0ZmU0ZmQiIC8+PHN0b3Agb2Zmc2V0PSIwLjUiIHN0b3AtY29sb3I9IiM0YmRkZjgiIC8+PHN0b3Agb2Zmc2V0PSIwLjUiIHN0b3AtY29sb3I9IiM0NGQyZWUiIC8+PHN0b3Agb2Zmc2V0PSIwLjUiIHN0b3AtY29sb3I9IiMzYWMxZTAiIC8+PHN0b3Agb2Zmc2V0PSIwLjUiIHN0b3AtY29sb3I9IiMyZGFiY2UiIC8+PHN0b3Agb2Zmc2V0PSIwLjUiIHN0b3AtY29sb3I9IiMxZDkwYjgiIC8+PHN0b3Agb2Zmc2V0PSIwLjUiIHN0b3AtY29sb3I9IiMxOThhYjMiIC8+PHN0b3Agb2Zmc2V0PSIwLjY2MiIgc3RvcC1jb2xvcj0iIzMyYmVkZCIgLz48c3RvcCBvZmZzZXQ9IjAuOTc1IiBzdG9wLWNvbG9yPSIjNTBlNmZmIiAvPjwvbGluZWFyR3JhZGllbnQ+PC9kZWZzPjxwYXRoIGQ9Ik05LDAsMS4xNSw0LjQ5djguOTdMOSwxOGw3Ljg1LTQuNDl2LTlabTYuNCwxMi41N0w5LDE2LjI3LDIuNiwxMi42MDlWNS4zOEw5LDEuNjhsNi40LDMuNzFaIiBmaWxsPSIjMDA3OGQ0IiAvPjxwb2x5Z29uIHBvaW50cz0iOSAwIDkgMCAxLjE1IDQuNDkgMi42IDUuMzggOSAxLjY4IDkgMS42OCAxNS40IDUuMzggMTYuODUgNC40OSA5IDAiIGZpbGw9InVybCgjYTg5MTkwMWItNzlhZS00OTBhLTg1NjgtOWM0MzM0NDE3ZDM1KSIgLz48cGF0aCBkPSJNMTIuNzQsMTAuNDc1YS43My43MywwLDAsMC0uMzIzLS4yODZBNS44MzUsNS44MzUsMCwwLDAsNy45MzksNi44NDNMMTQuNDE2LDMuMSwxMi45MSwyLjIzNiw1LjUzNCw2LjVBLjc1Ljc1LDAsMCwwLDUuOTEsNy45LjY4NC42ODQsMCwwLDAsNiw3Ljg3N2wuMTI1LjUyM2E0LjMxOSw0LjMxOSwwLDAsMSw0LjgzNywyLjIzOEwzLjYxMywxNC44ODVsMS41Ljg2NkwxMi40NjYsMTEuNWEuNzI5LjcyOSwwLDAsMCwuMjQyLS4yMzZsLjA3NS0uMDE4Yy0uMDA3LS4wMjktLjAxOC0uMDU1LS4wMjUtLjA4NEEuNzM1LjczNSwwLDAsMCwxMi43NCwxMC40NzVaIiBmaWxsPSIjNTBlNmZmIiAvPjxwYXRoIGQ9Ik0xMi4wOTEsOS4wMTNhMS44NSwxLjg1LDAsMSwwLDEuODUsMS44NUExLjg1LDEuODUsMCwwLDAsMTIuMDkxLDkuMDEzWk01LjkwOSw1LjI2N2ExLjg1LDEuODUsMCwxLDAsMS44NSwxLjg1QTEuODUsMS44NSwwLDAsMCw1LjkwOSw1LjI2N1oiIGZpbGw9InVybCgjYmJkYWEwMDktMjI4MS00ZGE4LTllODktNmY0MTY4OWU5MWE3KSIgLz48L3N2Zz4=;fontSize=10;" parent="1" vertex="1">
          <mxGeometry x="275" y="365" width="50" height="50" as="geometry"/>
        </mxCell>
        <mxCell id="stream_analytics" value="Azure Stream Analytics" style="shape=image;verticalLabelPosition=bottom;labelBackgroundColor=none;verticalAlign=top;aspect=fixed;imageAspect=0;image=data:image/svg+xml,PHN2ZyB4bWxucz0iaHR0cDovL3d3dy53My5vcmcvMjAwMC9zdmciIHdpZHRoPSIxOCIgaGVpZ2h0PSIxOCIgdmlld0JveD0iMCAwIDE4IDE4Ij48ZGVmcz48bGluZWFyR3JhZGllbnQgaWQ9ImEyMDU0N2U1LWQ2YWYtNDU2Yi1hZmJjLTA1ZDIyZmY4Y2I5ZCIgeDE9IjQ1ODkuNzIiIHkxPSItNTE4MC4wMiIgeDI9IjQ1ODkuNzIiIHkyPSItNTE4NC4yMSIgZ3JhZGllbnRUcmFuc2Zvcm09Im1hdHJpeCgwLjUsIDAsIDAsIC0wLjUsIC0yMjc1LjMxLCAtMjU4OS4zMikiIGdyYWRpZW50VW5pdHM9InVzZXJTcGFjZU9uVXNlIj48c3RvcCBvZmZzZXQ9IjAiIHN0b3AtY29sb3I9IiNjNjlhZWIiIC8+PHN0b3Agb2Zmc2V0PSIxIiBzdG9wLWNvbG9yPSIjNmY0YmIyIiAvPjwvbGluZWFyR3JhZGllbnQ+PGxpbmVhckdyYWRpZW50IGlkPSJhNDc0NWY1MS01ZTc1LTQxMjYtODEyZC02YmI4YTUxMzBlMTYiIHgxPSI0NTg3Ljk5IiB5MT0iLTUxODguNDciIHgyPSI0NTg3Ljk5IiB5Mj0iLTUxOTIuNjUiIGhyZWY9IiNhMjA1NDdlNS1kNmFmLTQ1NmItYWZiYy0wNWQyMmZmOGNiOWQiIC8+PC9kZWZzPjx0aXRsZT5JY29uLWludGVncmF0aW9uLTIyMTwvdGl0bGU+PGc+PGcgaWQ9ImIzMGIwYmQ1LWU0ZDItNDU2Yi04ZDQ5LWMyZGYyMDIwMDkxMiI+PHBhdGggaWQ9ImI1MTg3OGI1LThkNTAtNGI4Yi1iYzQ4LTc0ZjVmNzMxNWE5OSIgZD0iTTEyLjcsOC4xNXYtLjZIOC4xOEw2LjA2LDkuNjZINC41TDguMTIsNmgyLjQ3VjUuNDNINy44N0wzLjY1LDkuNjZoLS42di42SDQuODZMNywxMi4zN0gxMi4xdi0uNkg3LjIyTDUuNzEsMTAuMjZIOS4zOHYtLjZINi45MmwxLjUtMS41MVoiIGZpbGw9IiMzMmJlZGQiIC8+PGNpcmNsZSBpZD0iYWQwZWQ0ZWItY2Q1Zi00Y2MwLWJkMTktMjgzMGQyN2VjODA2IiBjeD0iOS45OCIgY3k9IjkuOTYiIHI9IjAuODciIGZpbGw9IiNmZmYiIC8+PGNpcmNsZSBpZD0iYTI3NDZiNGEtMGFlNC00MzA4LTg3NmUtNWI4MjY1N2UxODcyIiBjeD0iMTAuODkiIGN5PSI1Ljc0IiByPSIwLjg3IiBmaWxsPSIjZmZmIiAvPjxjaXJjbGUgaWQ9ImZjMzMxNmUwLTcwOTQtNGNlMC05OWVkLTQzZjFlNmU0MzUwYyIgY3g9IjEzIiBjeT0iNy44NSIgcj0iMC44NyIgZmlsbD0iI2ZmZiIgLz48Y2lyY2xlIGlkPSJiNWQxODQ0My1kNTBlLTQ1OTAtOGU4Zi04MGI2YTdmNmQzNDgiIGN4PSIxMi4xIiBjeT0iMTIuMDciIHI9IjAuODciIGZpbGw9IiNmZmYiIC8+PGNpcmNsZSBjeD0iMTAuODYiIGN5PSI1Ljc0IiByPSIxLjA1IiBmaWxsPSIjNTBlNmZmIiAvPjxjaXJjbGUgY3g9IjEyLjk3IiBjeT0iNy44NSIgcj0iMS4wNSIgZmlsbD0idXJsKCNhMjA1NDdlNS1kNmFmLTQ1NmItYWZiYy0wNWQyMmZmOGNiOWQpIiAvPjxjaXJjbGUgY3g9IjEyLjEiIGN5PSIxMi4wNyIgcj0iMS4wNSIgZmlsbD0idXJsKCNhNDc0NWY1MS01ZTc1LTQxMjYtODEyZC02YmI4YTUxMzBlMTYpIiAvPjxjaXJjbGUgY3g9IjkuOTgiIGN5PSI5Ljk2IiByPSIxLjA1IiBmaWxsPSIjNTBlNmZmIiAvPjxnPjxwYXRoIGQ9Ik0xLjA3LDEuNDNIMi4zNmEwLDAsMCwwLDEsMCwwVjVhLjI5LjI5LDAsMCwxLS4yOS4yOUguNzlBLjI5LjI5LDAsMCwxLC41LDVWMkEuNTcuNTcsMCwwLDEsMS4wNywxLjQzWiIgZmlsbD0iIzk5OSIgLz48cGF0aCBkPSJNMS4wNywxLjQzSDIuMzZhMCwwLDAsMCwxLDAsMFY1YS4yOS4yOSwwLDAsMS0uMjkuMjlILjc5QS4yOS4yOSwwLDAsMSwuNSw1VjJBLjU3LjU3LDAsMCwxLDEuMDcsMS40M1oiIGZpbGw9IiM5OTkiIG9wYWNpdHk9IjAuNSIgLz48L2c+PGc+PHBhdGggZD0iTTE1LjY0LDEuNDNoMS4yOUEuNTcuNTcsMCwwLDEsMTcuNSwyVjVhLjI5LjI5LDAsMCwxLS4yOS4yOUgxNS45MkEuMjkuMjksMCwwLDEsMTUuNjQsNVYxLjQzQTAsMCwwLDAsMSwxNS42NCwxLjQzWiIgZmlsbD0iIzk5OSIgLz48cGF0aCBkPSJNMTUuNjQsMS40M2gxLjI5QS41Ny41NywwLDAsMSwxNy41LDJWNWEuMjkuMjksMCwwLDEtLjI5LjI5SDE1LjkyQS4yOS4yOSwwLDAsMSwxNS42NCw1VjEuNDNBMCwwLDAsMCwxLDE1LjY0LDEuNDNaIiBmaWxsPSIjOTk5IiBvcGFjaXR5PSIwLjUiIC8+PC9nPjxwYXRoIGQ9Ik04LjY2LTYuMTZIOS45MWEwLDAsMCwwLDEsMCwwdjE3YTAsMCwwLDAsMSwwLDBIOC42NmEuNTcuNTcsMCwwLDEtLjU3LS41N1YtNS42QS41Ny41NywwLDAsMSw4LjY2LTYuMTZaIiB0cmFuc2Zvcm09InRyYW5zbGF0ZSgxMS4zNCAtNi42Nikgcm90YXRlKDkwKSIgZmlsbD0iIzk0OTQ5NCIgLz48Zz48cGF0aCBkPSJNLjc5LDEyLjY4SDIuMDhhLjI5LjI5LDAsMCwxLC4yOS4yOXYzLjZhMCwwLDAsMCwxLDAsMEgxLjA3QS41Ny41NywwLDAsMSwuNSwxNlYxM0EuMjkuMjksMCwwLDEsLjc5LDEyLjY4WiIgZmlsbD0iIzk5OSIgLz48cGF0aCBkPSJNLjc5LDEyLjY4SDIuMDhhLjI5LjI5LDAsMCwxLC4yOS4yOXYzLjZhMCwwLDAsMCwxLDAsMEgxLjA3QS41Ny41NywwLDAsMSwuNSwxNlYxM0EuMjkuMjksMCwwLDEsLjc5LDEyLjY4WiIgZmlsbD0iIzk5OSIgb3BhY2l0eT0iMC41IiAvPjwvZz48Zz48cGF0aCBkPSJNMTUuOTIsMTIuNjhoMS4yOWEuMjkuMjksMCwwLDEsLjI5LjI5djNhLjU3LjU3LDAsMCwxLS41Ny41N0gxNS42NGEwLDAsMCwwLDEsMCwwVjEzQS4yOS4yOSwwLDAsMSwxNS45MiwxMi42OFoiIGZpbGw9IiM5OTkiIC8+PHBhdGggZD0iTTE1LjkyLDEyLjY4aDEuMjlhLjI5LjI5LDAsMCwxLC4yOS4yOXYzYS41Ny41NywwLDAsMS0uNTcuNTdIMTUuNjRhMCwwLDAsMCwxLDAsMFYxM0EuMjkuMjksMCwwLDEsMTUuOTIsMTIuNjhaIiBmaWxsPSIjOTk5IiBvcGFjaXR5PSIwLjUiIC8+PC9nPjxwYXRoIGQ9Ik04LjY2LDcuMTZIOS45MWEwLDAsMCwwLDEsMCwwdjE3YTAsMCwwLDAsMSwwLDBIOC42NmEuNTcuNTcsMCwwLDEtLjU3LS41N1Y3LjczQS41Ny41NywwLDAsMSw4LjY2LDcuMTZaIiB0cmFuc2Zvcm09InRyYW5zbGF0ZSgtNi42NiAyNC42Nikgcm90YXRlKC05MCkiIGZpbGw9IiM5NDk0OTQiIC8+PC9nPjwvZz48L3N2Zz4=;fontSize=10;" parent="1" vertex="1">
          <mxGeometry x="425" y="365" width="50" height="50" as="geometry"/>
        </mxCell>
        <mxCell id="data_lake_silver" value="Azure Data Lake (Cleansed)" style="shape=image;verticalLabelPosition=bottom;labelBackgroundColor=none;verticalAlign=top;aspect=fixed;imageAspect=0;image=data:image/svg+xml,PHN2ZyBpZD0iYjYzMGE2MzEtZTk1MS00ODc0LWJlY2QtMTkzYzkwZTlkMzk5IiB4bWxucz0iaHR0cDovL3d3dy53My5vcmcvMjAwMC9zdmciIHdpZHRoPSIxOCIgaGVpZ2h0PSIxOCIgdmlld0JveD0iMCAwIDE4IDE4Ij48ZGVmcz48bGluZWFyR3JhZGllbnQgaWQ9ImU1NmY2MWU3LWQxZWYtNGE0Yy1iNzE0LTVjMmU1NzY1NjI1NyIgeDE9IjkiIHkxPSIxNy45OSIgeDI9IjkiIHkyPSItMS40MiIgZ3JhZGllbnRVbml0cz0idXNlclNwYWNlT25Vc2UiPjxzdG9wIG9mZnNldD0iMCIgc3RvcC1jb2xvcj0iIzAwNzhkNCIgLz48c3RvcCBvZmZzZXQ9IjAuMTQiIHN0b3AtY29sb3I9IiMwNzdiZDYiIC8+PHN0b3Agb2Zmc2V0PSIwLjM0IiBzdG9wLWNvbG9yPSIjMWE4M2RiIiAvPjxzdG9wIG9mZnNldD0iMC41OSIgc3RvcC1jb2xvcj0iIzM5OTBlNCIgLz48c3RvcCBvZmZzZXQ9IjAuODIiIHN0b3AtY29sb3I9IiM1ZWEwZWYiIC8+PC9saW5lYXJHcmFkaWVudD48bGluZWFyR3JhZGllbnQgaWQ9ImEwY2VmNDliLTE5MTEtNDhjZC05YjJkLTkxYzVkMTBiNTdkZiIgeDE9IjcuOTciIHkxPSIxNi41MSIgeDI9IjcuOTciIHkyPSI0Ljg0IiBncmFkaWVudFVuaXRzPSJ1c2VyU3BhY2VPblVzZSI+PHN0b3Agb2Zmc2V0PSIwIiBzdG9wLWNvbG9yPSIjOTQ5NDk0IiAvPjxzdG9wIG9mZnNldD0iMC4zMSIgc3RvcC1jb2xvcj0iI2I5YjliOSIgLz48c3RvcCBvZmZzZXQ9IjAuNzciIHN0b3AtY29sb3I9IiNlY2VjZWMiIC8+PHN0b3Agb2Zmc2V0PSIxIiBzdG9wLWNvbG9yPSIjZmZmIiAvPjwvbGluZWFyR3JhZGllbnQ+PC9kZWZzPjxwYXRoIGQ9Ik0xOCwxMC4yNWE0LjA2LDQuMDYsMCwwLDAtMy41MS0zLjg5QTUuMSw1LjEsMCwwLDAsOS4yNCwxLjQ5YTUuMjUsNS4yNSwwLDAsMC01LDMuNDFBNC44LDQuOCwwLDAsMCwwLDkuNTRhNC45LDQuOSwwLDAsMCw1LjA3LDQuNzFsLjQ0LDBoOC4yMWExLjQ2LDEuNDYsMCwwLDAsLjIyLDBBNC4xLDQuMSwwLDAsMCwxOCwxMC4yNVoiIGZpbGw9InVybCgjZTU2ZjYxZTctZDFlZi00YTRjLWI3MTQtNWMyZTU3NjU2MjU3KSIgLz48cGF0aCBkPSJNMTIuMTMsNi4ySDUuNTZhLjA5LjA5LDAsMCwxLS4xLS4xVjQuOTRhLjExLjExLDAsMCwwLS4xOC0uMDdsLTIsMmEuMS4xLDAsMCwwLDAsLjE0bDIsMmEuMTEuMTEsMCwwLDAsLjE4LS4wOFY3LjczYS4xLjEsMCwwLDEsLjEtLjFoMVYxNmEuNTIuNTIsMCwwLDAsLjUyLjUyaDVhLjUyLjUyLDAsMCwwLC41Mi0uNTJWNi43MkEuNTIuNTIsMCwwLDAsMTIuMTMsNi4yWiIgZmlsbD0idXJsKCNhMGNlZjQ5Yi0xOTExLTQ4Y2QtOWIyZC05MWM1ZDEwYjU3ZGYpIiAvPjxnPjxwYXRoIGQ9Ik03LjQ5LDkuODJhLjY1LjY1LDAsMCwxLC42Ni0uNjZoM2EuNjYuNjYsMCwwLDEsLjY2LjY2aDBhLjY2LjY2LDAsMCwxLS42Ni42NWgtM2EuNjUuNjUsMCwwLDEtLjY2LS42NVoiIGZpbGw9IiMwMDMwNjciIC8+PHBhdGggZD0iTTcuNDksNy44NmEuNjYuNjYsMCwwLDEsLjY2LS42NmgzYS42Ny42NywwLDAsMSwuNjYuNjZoMGEuNjcuNjcsMCwwLDEtLjY2LjY2aC0zYS42Ni42NiwwLDAsMS0uNjYtLjY2WiIgZmlsbD0iIzAwMzA2NyIgLz48Y2lyY2xlIGN4PSI4LjE3IiBjeT0iNy44NiIgcj0iMC40NCIgZmlsbD0iIzUwZTZmZiIgLz48Y2lyY2xlIGN4PSI4LjE3IiBjeT0iOS44MiIgcj0iMC40NCIgZmlsbD0iIzUwZTZmZiIgLz48L2c+PHBhdGggZD0iTTkuODgsMTMuNTlsLTIsMmEuMTEuMTEsMCwwLDEtLjE4LS4wOFYxNC4zM2EuMS4xLDAsMCwwLS4xLS4xSDYuNTZWMTIuOEg3LjYzYS4wOS4wOSwwLDAsMCwuMS0uMVYxMS41NGEuMTEuMTEsMCwwLDEsLjE4LS4wN2wyLDJBLjEuMSwwLDAsMSw5Ljg4LDEzLjU5WiIgZmlsbD0iIzAwNzhkNCIgLz48L3N2Zz4=;fontSize=10;" parent="1" vertex="1">
          <mxGeometry x="575" y="365" width="50" height="50" as="geometry"/>
        </mxCell>
        <mxCell id="databricks_ml" value="Azure Databricks ML" style="shape=image;verticalLabelPosition=bottom;labelBackgroundColor=none;verticalAlign=top;aspect=fixed;imageAspect=0;image=data:image/svg+xml,PHN2ZyBpZD0iYWI2OTE1ZjgtYmU1NC00ZDZmLTkzMmEtN2Y0MjllNzU5ODNhIiB4bWxucz0iaHR0cDovL3d3dy53My5vcmcvMjAwMC9zdmciIHdpZHRoPSIxOCIgaGVpZ2h0PSIxOCIgdmlld0JveD0iMCAwIDE4IDE4Ij48ZGVmcz48bGluZWFyR3JhZGllbnQgaWQ9ImI4ZWYxZWJmLTQxOWQtNDA5Ny1hOWJjLWUyZmJiNjhkOWMzYiIgeDE9IjUuNzEiIHkxPSI3LjEiIHgyPSI1LjgyIiB5Mj0iMTcuNDgiIGdyYWRpZW50VW5pdHM9InVzZXJTcGFjZU9uVXNlIj48c3RvcCBvZmZzZXQ9IjAiIHN0b3AtY29sb3I9IiMzMmQ0ZjUiIC8+PHN0b3Agb2Zmc2V0PSIwLjMyIiBzdG9wLWNvbG9yPSIjMzFkMWYzIiAvPjxzdG9wIG9mZnNldD0iMC41MyIgc3RvcC1jb2xvcj0iIzJlYzllYiIgLz48c3RvcCBvZmZzZXQ9IjAuNyIgc3RvcC1jb2xvcj0iIzI5YmFkZSIgLz48c3RvcCBvZmZzZXQ9IjAuODYiIHN0b3AtY29sb3I9IiMyMmE1Y2IiIC8+PHN0b3Agb2Zmc2V0PSIxIiBzdG9wLWNvbG9yPSIjMTk4YWIzIiAvPjxzdG9wIG9mZnNldD0iMSIgc3RvcC1jb2xvcj0iIzE5OGFiMyIgLz48L2xpbmVhckdyYWRpZW50PjwvZGVmcz48dGl0bGU+SWNvbi1tYWNoaW5lbGVhcm5pbmctMTY3PC90aXRsZT48cGF0aCBkPSJNNiwuNkgxNy4xMmEuMzcuMzcsMCwwLDEsLjM4LjM0VjkuNTNhLjM2LjM2LDAsMCwxLS4zOC4zNEg2YS4zNi4zNiwwLDAsMS0uMzgtLjM0Vi45NEEuMzcuMzcsMCwwLDEsNiwuNloiIGZpbGw9IiNlNmU2ZTYiIC8+PHBhdGggZD0iTTUuOTQuNmgxMS4yYS4zNS4zNSwwLDAsMSwuMzYuMzJoMHYxLjNINS41OFYuOTJBLjM1LjM1LDAsMCwxLDUuOTQuNloiIGZpbGw9IiM1ZWEwZWYiIC8+PHJlY3QgeD0iNS41OCIgeT0iMi4yMiIgd2lkdGg9IjMuOTgiIGhlaWdodD0iMy44MyIgZmlsbD0iIzgzYjlmOSIgLz48cmVjdCB4PSI5LjU0IiB5PSIyLjIyIiB3aWR0aD0iMy45OCIgaGVpZ2h0PSIzLjgzIiBmaWxsPSIjMDA3OGQ0IiAvPjxyZWN0IHg9IjEzLjUyIiB5PSIyLjIyIiB3aWR0aD0iMy45OCIgaGVpZ2h0PSIzLjgzIiBmaWxsPSIjODNiOWY5IiAvPjxwYXRoIGQ9Ik0xNC4wOSw2SDE3LjVhMCwwLDAsMCwxLDAsMFY5Ljg3YTAsMCwwLDAsMSwwLDBoLTRhMCwwLDAsMCwxLDAsMFY2LjYxQS41Ny41NywwLDAsMSwxNC4wOSw2WiIgdHJhbnNmb3JtPSJ0cmFuc2xhdGUoMzEuMDIgMTUuOTEpIHJvdGF0ZSgtMTgwKSIgZmlsbD0iIzAwNzhkNCIgLz48cmVjdCB4PSI5LjU2IiB5PSI2LjA0IiB3aWR0aD0iMy45OCIgaGVpZ2h0PSIzLjgzIiB0cmFuc2Zvcm09InRyYW5zbGF0ZSgyMy4xMSAxNS45MSkgcm90YXRlKC0xODApIiBmaWxsPSIjODNiOWY5IiAvPjxyZWN0IHg9IjUuNTgiIHk9IjYuMDQiIHdpZHRoPSIzLjk4IiBoZWlnaHQ9IjMuODMiIHRyYW5zZm9ybT0idHJhbnNsYXRlKDE1LjE1IDE1LjkxKSByb3RhdGUoLTE4MCkiIGZpbGw9IiMwMDc4ZDQiIC8+PHBhdGggZD0iTTEwLjczLDE3LjRILjg5Yy0uMzEsMC0uNS0uNS0uMzItLjc2bDMuMzktNUEuMzQuMzQsMCwwLDAsNCwxMS40N1Y4LjJBLjIuMiwwLDAsMCwzLjg0LDhIMy42NWEuMzkuMzksMCwwLDEtLjM5LS4zOVY3LjQ0YS4zOS4zOSwwLDAsMSwuMzktLjM4SDhhLjM4LjM4LDAsMCwxLC4zOS4zOHYuMThBLjM4LjM4LDAsMCwxLDgsOEg3Ljc5YS4yLjIsMCwwLDAtLjIuMTl2My4yOGEuNDEuNDEsMCwwLDAsLjA3LjIybDMuNCw0Ljk0QzExLjIzLDE2LjksMTEuMDUsMTcuNCwxMC43MywxNy40WiIgZmlsbD0idXJsKCNiOGVmMWViZi00MTlkLTQwOTctYTliYy1lMmZiYjY4ZDljM2IpIiAvPjxwYXRoIGQ9Ik0yLjE5LDE2bDIuNDYtMy41OWEuODYuODYsMCwwLDAsLjE2LS41MVYxMC40YS4yOS4yOSwwLDAsMSwuMjktLjI5SDYuNWEuMjguMjgsMCwwLDEsLjI4LjI5VjEyYS42LjYsMCwwLDAsLjExLjM0TDkuNDEsMTZhLjIxLjIxLDAsMCwxLS4xOC4zNEgyLjM2QS4yMS4yMSwwLDAsMSwyLjE5LDE2WiIgZmlsbD0iI2ZmZiIgLz48L3N2Zz4=;fontSize=10;" parent="1" vertex="1">
          <mxGeometry x="125" y="565" width="50" height="50" as="geometry"/>
        </mxCell>
        <mxCell id="azure_ml" value="Azure Machine Learning" style="shape=image;verticalLabelPosition=bottom;labelBackgroundColor=none;verticalAlign=top;aspect=fixed;imageAspect=0;image=data:image/svg+xml,PHN2ZyBpZD0iYWI2OTE1ZjgtYmU1NC00ZDZmLTkzMmEtN2Y0MjllNzU5ODNhIiB4bWxucz0iaHR0cDovL3d3dy53My5vcmcvMjAwMC9zdmciIHdpZHRoPSIxOCIgaGVpZ2h0PSIxOCIgdmlld0JveD0iMCAwIDE4IDE4Ij48ZGVmcz48bGluZWFyR3JhZGllbnQgaWQ9ImI4ZWYxZWJmLTQxOWQtNDA5Ny1hOWJjLWUyZmJiNjhkOWMzYiIgeDE9IjUuNzEiIHkxPSI3LjEiIHgyPSI1LjgyIiB5Mj0iMTcuNDgiIGdyYWRpZW50VW5pdHM9InVzZXJTcGFjZU9uVXNlIj48c3RvcCBvZmZzZXQ9IjAiIHN0b3AtY29sb3I9IiMzMmQ0ZjUiIC8+PHN0b3Agb2Zmc2V0PSIwLjMyIiBzdG9wLWNvbG9yPSIjMzFkMWYzIiAvPjxzdG9wIG9mZnNldD0iMC41MyIgc3RvcC1jb2xvcj0iIzJlYzllYiIgLz48c3RvcCBvZmZzZXQ9IjAuNyIgc3RvcC1jb2xvcj0iIzI5YmFkZSIgLz48c3RvcCBvZmZzZXQ9IjAuODYiIHN0b3AtY29sb3I9IiMyMmE1Y2IiIC8+PHN0b3Agb2Zmc2V0PSIxIiBzdG9wLWNvbG9yPSIjMTk4YWIzIiAvPjxzdG9wIG9mZnNldD0iMSIgc3RvcC1jb2xvcj0iIzE5OGFiMyIgLz48L2xpbmVhckdyYWRpZW50PjwvZGVmcz48dGl0bGU+SWNvbi1tYWNoaW5lbGVhcm5pbmctMTY3PC90aXRsZT48cGF0aCBkPSJNNiwuNkgxNy4xMmEuMzcuMzcsMCwwLDEsLjM4LjM0VjkuNTNhLjM2LjM2LDAsMCwxLS4zOC4zNEg2YS4zNi4zNiwwLDAsMS0uMzgtLjM0Vi45NEEuMzcuMzcsMCwwLDEsNiwuNloiIGZpbGw9IiNlNmU2ZTYiIC8+PHBhdGggZD0iTTUuOTQuNmgxMS4yYS4zNS4zNSwwLDAsMSwuMzYuMzJoMHYxLjNINS41OFYuOTJBLjM1LjM1LDAsMCwxLDUuOTQuNloiIGZpbGw9IiM1ZWEwZWYiIC8+PHJlY3QgeD0iNS41OCIgeT0iMi4yMiIgd2lkdGg9IjMuOTgiIGhlaWdodD0iMy44MyIgZmlsbD0iIzgzYjlmOSIgLz48cmVjdCB4PSI5LjU0IiB5PSIyLjIyIiB3aWR0aD0iMy45OCIgaGVpZ2h0PSIzLjgzIiBmaWxsPSIjMDA3OGQ0IiAvPjxyZWN0IHg9IjEzLjUyIiB5PSIyLjIyIiB3aWR0aD0iMy45OCIgaGVpZ2h0PSIzLjgzIiBmaWxsPSIjODNiOWY5IiAvPjxwYXRoIGQ9Ik0xNC4wOSw2SDE3LjVhMCwwLDAsMCwxLDAsMFY5Ljg3YTAsMCwwLDAsMSwwLDBoLTRhMCwwLDAsMCwxLDAsMFY2LjYxQS41Ny41NywwLDAsMSwxNC4wOSw2WiIgdHJhbnNmb3JtPSJ0cmFuc2xhdGUoMzEuMDIgMTUuOTEpIHJvdGF0ZSgtMTgwKSIgZmlsbD0iIzAwNzhkNCIgLz48cmVjdCB4PSI5LjU2IiB5PSI2LjA0IiB3aWR0aD0iMy45OCIgaGVpZ2h0PSIzLjgzIiB0cmFuc2Zvcm09InRyYW5zbGF0ZSgyMy4xMSAxNS45MSkgcm90YXRlKC0xODApIiBmaWxsPSIjODNiOWY5IiAvPjxyZWN0IHg9IjUuNTgiIHk9IjYuMDQiIHdpZHRoPSIzLjk4IiBoZWlnaHQ9IjMuODMiIHRyYW5zZm9ybT0idHJhbnNsYXRlKDE1LjE1IDE1LjkxKSByb3RhdGUoLTE4MCkiIGZpbGw9IiMwMDc4ZDQiIC8+PHBhdGggZD0iTTEwLjczLDE3LjRILjg5Yy0uMzEsMC0uNS0uNS0uMzItLjc2bDMuMzktNUEuMzQuMzQsMCwwLDAsNCwxMS40N1Y4LjJBLjIuMiwwLDAsMCwzLjg0LDhIMy42NWEuMzkuMzksMCwwLDEtLjM5LS4zOVY3LjQ0YS4zOS4zOSwwLDAsMSwuMzktLjM4SDhhLjM4LjM4LDAsMCwxLC4zOS4zOHYuMThBLjM4LjM4LDAsMCwxLDgsOEg3Ljc5YS4yLjIsMCwwLDAtLjIuMTl2My4yOGEuNDEuNDEsMCwwLDAsLjA3LjIybDMuNCw0Ljk0QzExLjIzLDE2LjksMTEuMDUsMTcuNCwxMC43MywxNy40WiIgZmlsbD0idXJsKCNiOGVmMWViZi00MTlkLTQwOTctYTliYy1lMmZiYjY4ZDljM2IpIiAvPjxwYXRoIGQ9Ik0yLjE5LDE2bDIuNDYtMy41OWEuODYuODYsMCwwLDAsLjE2LS41MVYxMC40YS4yOS4yOSwwLDAsMSwuMjktLjI5SDYuNWEuMjguMjgsMCwwLDEsLjI4LjI5VjEyYS42LjYsMCwwLDAsLjExLjM0TDkuNDEsMTZhLjIxLjIxLDAsMCwxLS4xOC4zNEgyLjM2QS4yMS4yMSwwLDAsMSwyLjE5LDE2WiIgZmlsbD0iI2ZmZiIgLz48L3N2Zz4=;fontSize=10;" parent="1" vertex="1">
          <mxGeometry x="275" y="565" width="50" height="50" as="geometry"/>
        </mxCell>
        <mxCell id="iot_edge" value="Azure IoT Edge" style="shape=image;verticalLabelPosition=bottom;labelBackgroundColor=none;verticalAlign=top;aspect=fixed;imageAspect=0;image=data:image/svg+xml,PHN2ZyBpZD0iYjhhNWRlYjAtMjU3ZC00MDI5LTllZDAtYTAyNTE4ZTlhNTE5IiB4bWxucz0iaHR0cDovL3d3dy53My5vcmcvMjAwMC9zdmciIHdpZHRoPSIxOCIgaGVpZ2h0PSIxOCIgdmlld0JveD0iMCAwIDE4IDE4Ij48dGl0bGU+SWNvbi1pb3QtMTg0PC90aXRsZT48cGF0aCBkPSJNOSwwLDEuMTUsNC40OXYzTDQuMiw5LjM0VjcuNTRMMi42LDYuNjJWNS4zOEw5LDEuNjhsNi40LDMuNzF2Ny4xOEw5LDE2LjI3LDEuMTUsMTEuNzh2MS42OEw5LDE4bDcuODUtNC40OXYtOVoiIGZpbGw9IiNhM2EzYTMiIC8+PHBvbHlnb24gcG9pbnRzPSI5IDAgOSAwIDEuMTUgNC40OSAyLjYgNS4zOCA5IDEuNjggOSAxLjY4IDE1LjQgNS4zOCAxNi44NSA0LjQ5IDkgMCIgZmlsbD0iIzk0OTQ5NCIgLz48cG9seWdvbiBwb2ludHM9IjEzLjI1IDYuNTQgMTMuMjUgMTEuNDYgOSAxMy45MyA5IDkuMDEgMTMuMjUgNi41NCIgZmlsbD0iIzMyYmVkZCIgLz48cG9seWdvbiBwb2ludHM9IjEzLjI1IDYuNTQgOSA5LjAxIDQuNzUgNi41NCA5IDQuMDcgMTMuMjUgNi41NCIgZmlsbD0iIzljZWJmZiIgLz48cG9seWdvbiBwb2ludHM9IjkgOS4wMSA5IDEzLjkzIDQuNzUgMTEuNDYgNC43NSA2LjU0IDkgOS4wMSIgZmlsbD0iIzUwZTZmZiIgLz48cG9seWdvbiBwb2ludHM9IjQuNzUgMTEuNDYgOSA5LjAxIDkgMTMuOTMgNC43NSAxMS40NiIgZmlsbD0iIzljZWJmZiIgLz48cG9seWdvbiBwb2ludHM9IjEzLjI1IDExLjQ2IDkgOS4wMSA5IDEzLjkzIDEzLjI1IDExLjQ2IiBmaWxsPSIjNTBlNmZmIiAvPjwvc3ZnPg==;fontSize=10;" parent="1" vertex="1">
          <mxGeometry x="425" y="565" width="50" height="50" as="geometry"/>
        </mxCell>
        <mxCell id="streamlit" value="Streamlit Dashboard" style="rounded=1;whiteSpace=wrap;html=1;fillColor=#FF5722;strokeColor=#FF5722;fontColor=#FFFFFF;fontSize=10;" parent="1" vertex="1">
          <mxGeometry x="560" y="570" width="80" height="40" as="geometry"/>
        </mxCell>
        <mxCell id="synapse" value="Azure Synapse" style="shape=image;verticalLabelPosition=bottom;labelBackgroundColor=none;verticalAlign=top;aspect=fixed;imageAspect=0;image=data:image/svg+xml,PHN2ZyBpZD0iZjJmNTcwMWUtY2IzYi00ZDZmLWI0MDctNTg2NmVjNWI3Nzg0IiB4bWxucz0iaHR0cDovL3d3dy53My5vcmcvMjAwMC9zdmciIHdpZHRoPSIxOCIgaGVpZ2h0PSIxOCIgdmlld0JveD0iMCAwIDE4IDE4Ij48ZGVmcz48bGluZWFyR3JhZGllbnQgaWQ9ImE4OTE5MDFiLTc5YWUtNDkwYS04NTY4LTljNDMzNDQxN2QzNSIgeDE9IjkiIHkxPSI1LjM4IiB4Mj0iOSIgZ3JhZGllbnRVbml0cz0idXNlclNwYWNlT25Vc2UiPjxzdG9wIG9mZnNldD0iMC4xOTkiIHN0b3AtY29sb3I9IiMwMDViYTEiIC8+PHN0b3Agb2Zmc2V0PSIxIiBzdG9wLWNvbG9yPSIjMDA3OGQ0IiAvPjwvbGluZWFyR3JhZGllbnQ+PGxpbmVhckdyYWRpZW50IGlkPSJiYmRhYTAwOS0yMjgxLTRkYTgtOWU4OS02ZjQxNjg5ZTkxYTciIHgxPSI5IiB5MT0iMTIuNzEzIiB4Mj0iOSIgeTI9IjUuMjg3IiBncmFkaWVudFVuaXRzPSJ1c2VyU3BhY2VPblVzZSI+PHN0b3Agb2Zmc2V0PSIwIiBzdG9wLWNvbG9yPSIjMTk4YWIzIiAvPjxzdG9wIG9mZnNldD0iMC4xNzIiIHN0b3AtY29sb3I9IiMzMmJlZGQiIC8+PHN0b3Agb2Zmc2V0PSIwLjUiIHN0b3AtY29sb3I9IiM1MGU2ZmYiIC8+PHN0b3Agb2Zmc2V0PSIwLjUiIHN0b3AtY29sb3I9IiM0ZmU0ZmQiIC8+PHN0b3Agb2Zmc2V0PSIwLjUiIHN0b3AtY29sb3I9IiM0YmRkZjgiIC8+PHN0b3Agb2Zmc2V0PSIwLjUiIHN0b3AtY29sb3I9IiM0NGQyZWUiIC8+PHN0b3Agb2Zmc2V0PSIwLjUiIHN0b3AtY29sb3I9IiMzYWMxZTAiIC8+PHN0b3Agb2Zmc2V0PSIwLjUiIHN0b3AtY29sb3I9IiMyZGFiY2UiIC8+PHN0b3Agb2Zmc2V0PSIwLjUiIHN0b3AtY29sb3I9IiMxZDkwYjgiIC8+PHN0b3Agb2Zmc2V0PSIwLjUiIHN0b3AtY29sb3I9IiMxOThhYjMiIC8+PHN0b3Agb2Zmc2V0PSIwLjY2MiIgc3RvcC1jb2xvcj0iIzMyYmVkZCIgLz48c3RvcCBvZmZzZXQ9IjAuOTc1IiBzdG9wLWNvbG9yPSIjNTBlNmZmIiAvPjwvbGluZWFyR3JhZGllbnQ+PC9kZWZzPjxwYXRoIGQ9Ik05LDAsMS4xNSw0LjQ5djguOTdMOSwxOGw3Ljg1LTQuNDl2LTlabTYuNCwxMi41N0w5LDE2LjI3LDIuNiwxMi42MDlWNS4zOEw5LDEuNjhsNi40LDMuNzFaIiBmaWxsPSIjMDA3OGQ0IiAvPjxwb2x5Z29uIHBvaW50cz0iOSAwIDkgMCAxLjE1IDQuNDkgMi42IDUuMzggOSAxLjY4IDkgMS42OCAxNS40IDUuMzggMTYuODUgNC40OSA5IDAiIGZpbGw9InVybCgjYTg5MTkwMWItNzlhZS00OTBhLTg1NjgtOWM0MzM0NDE3ZDM1KSIgLz48cGF0aCBkPSJNMTIuNzQsMTAuNDc1YS43My43MywwLDAsMC0uMzIzLS4yODZBNS44MzUsNS44MzUsMCwwLDAsNy45MzksNi44NDNMMTQuNDE2LDMuMSwxMi45MSwyLjIzNiw1LjUzNCw2LjVBLjc1Ljc1LDAsMCwwLDUuOTEsNy45LjY4NC42ODQsMCwwLDAsNiw3Ljg3N2wuMTI1LjUyM2E0LjMxOSw0LjMxOSwwLDAsMSw0LjgzNywyLjIzOEwzLjYxMywxNC44ODVsMS41Ljg2NkwxMi40NjYsMTEuNWEuNzI5LjcyOSwwLDAsMCwuMjQyLS4yMzZsLjA3NS0uMDE4Yy0uMDA3LS4wMjktLjAxOC0uMDU1LS4wMjUtLjA4NEEuNzM1LjczNSwwLDAsMCwxMi43NCwxMC40NzVaIiBmaWxsPSIjNTBlNmZmIiAvPjxwYXRoIGQ9Ik0xMi4wOTEsOS4wMTNhMS44NSwxLjg1LDAsMSwwLDEuODUsMS44NUExLjg1LDEuODUsMCwwLDAsMTIuMDkxLDkuMDEzWk01LjkwOSw1LjI2N2ExLjg1LDEuODUsMCwxLDAsMS44NSwxLjg1QTEuODUsMS44NSwwLDAsMCw1LjkwOSw1LjI2N1oiIGZpbGw9InVybCgjYmJkYWEwMDktMjI4MS00ZGE4LTllODktNmY0MTY4OWU5MWE3KSIgLz48L3N2Zz4=;fontSize=10;" parent="1" vertex="1">
          <mxGeometry x="725" y="565" width="50" height="50" as="geometry"/>
        </mxCell>
        <mxCell id="azure_ad" value="Azure Active Directory" style="shape=image;verticalLabelPosition=bottom;labelBackgroundColor=none;verticalAlign=top;aspect=fixed;imageAspect=0;image=data:image/svg+xml,PHN2ZyBpZD0iZTQyNThhYWYtYWIzMi00NmQ3LWJjNDQtNjEyZmFmMWI2ZjBjIiB4bWxucz0iaHR0cDovL3d3dy53My5vcmcvMjAwMC9zdmciIHdpZHRoPSIxOCIgaGVpZ2h0PSIxOCIgdmlld0JveD0iMCAwIDE4IDE4Ij48ZGVmcz48bGluZWFyR3JhZGllbnQgaWQ9ImFkOTM1MjhjLWVkZjAtNGUxMy1hMDZhLWI0ZDE1ODdkMjM3NCIgeDE9IjkiIHkxPSI4LjExMiIgeDI9IjkiIHkyPSIxOS41IiBncmFkaWVudFRyYW5zZm9ybT0ibWF0cml4KDEsIDAsIDAsIC0xLCAwLCAyMCkiIGdyYWRpZW50VW5pdHM9InVzZXJTcGFjZU9uVXNlIj48c3RvcCBvZmZzZXQ9IjAuMjUxIiBzdG9wLWNvbG9yPSIjMzJiZWRkIiAvPjxzdG9wIG9mZnNldD0iMC44MyIgc3RvcC1jb2xvcj0iIzUwZTZmZiIgLz48L2xpbmVhckdyYWRpZW50PjxsaW5lYXJHcmFkaWVudCBpZD0iZjJjMjI0Y2EtYTAyOC00MjJhLTg5ODctYTMwM2I4ODk0ODlhIiB4MT0iLTEyMC45NzEiIHkxPSIxMjc5LjI3IiB4Mj0iLTEyMC45NzEiIHkyPSIxMjkzLjExNSIgZ3JhZGllbnRUcmFuc2Zvcm09Im1hdHJpeCgwLjcwNywgMC43MDcsIDAuNzA3LCAtMC43MDcsIC04MTUuMzk1LCAxMDA0LjI3KSIgZ3JhZGllbnRVbml0cz0idXNlclNwYWNlT25Vc2UiPjxzdG9wIG9mZnNldD0iMCIgc3RvcC1jb2xvcj0iIzAwNzhkNCIgLz48c3RvcCBvZmZzZXQ9IjAuMTQyIiBzdG9wLWNvbG9yPSIjMDc3YmQ2IiAvPjxzdG9wIG9mZnNldD0iMC4zNDUiIHN0b3AtY29sb3I9IiMxYTgzZGIiIC8+PHN0b3Agb2Zmc2V0PSIwLjU4NCIgc3RvcC1jb2xvcj0iIzM5OTBlNCIgLz48c3RvcCBvZmZzZXQ9IjAuODIiIHN0b3AtY29sb3I9IiM1ZWEwZWYiIC8+PC9saW5lYXJHcmFkaWVudD48L2RlZnM+PGc+PHBhdGggZD0iTTE3LjAyNiw4LjMxNEEzLjYxMiwzLjYxMiwwLDAsMCwxMy45LDQuODQ1LDQuNTQ4LDQuNTQ4LDAsMCwwLDkuMjE0LjUsNC42NjUsNC42NjUsMCwwLDAsNC43NTUsMy41NDMsNC4zLDQuMywwLDAsMCwuOTc0LDcuNjgxYTQuMzcsNC4zNywwLDAsMCw0LjUyMSw0LjJoNy43MTRhLjcxNS43MTUsMCwwLDAsLjIsMEEzLjY0NywzLjY0NywwLDAsMCwxNy4wMjYsOC4zMTRaIiBmaWxsPSJ1cmwoI2FkOTM1MjhjLWVkZjAtNGUxMy1hMDZhLWI0ZDE1ODdkMjM3NCkiIC8+PHBhdGggaWQ9ImY4NTVhY2M0LTMwOTUtNDE5NC04ZjExLTI2OTM2ZGUwZGVhMiIgZD0iTTEyLjMsMTAuOTU0YTEuNiwxLjYsMCwwLDAsMS42LTEuNmgwVjUuNDc4QTEuNTcsMS41NywwLDAsMCwxMi4zMzUsMy45SDguNDI5QTEuNiwxLjYsMCwwLDAsNi44NDIsNS41djMuMjJBLjQ2NC40NjQsMCwwLDEsNi43MDgsOUwzLjcsMTIuMDQyYS41MzcuNTM3LDAsMCwwLS4xNjEuMzg0djEuNDYyYS4zNTcuMzU3LDAsMCwwLC4zNDguMzY2SDYuMTczYS4yMDUuMjA1LDAsMCwwLC4yMDUtLjIwNVYxMy40NmEuMjMyLjIzMiwwLDAsMSwuMjMyLS4yMzJoLjYwNmEuMjA1LjIwNSwwLDAsMCwuMjA2LS4yMDVWMTIuMzlhLjIyMi4yMjIsMCwwLDEsLjIyMi0uMjIzaC42MDdhLjIwNS4yMDUsMCwwLDAsLjIxNC0uMnYtLjg0N2wuMTUyLS4xNjFabS4zMzktNS44YS45MTEuOTExLDAsMSwxLS4wMjQtLjAyM1oiIGZpbGw9InVybCgjZjJjMjI0Y2EtYTAyOC00MjJhLTg5ODctYTMwM2I4ODk0ODlhKSIgLz48cGF0aCBpZD0iYjIzOTYxOTctNWMxMi00Yzc2LTllYTEtMTM5NGU2NDYzMGJkIiBkPSJNMTUuMTcxLDE0LjJhMS41ODcsMS41ODcsMCwwLDAsMS41ODgtMS41ODdoMFY4LjczM2ExLjU4OCwxLjU4OCwwLDAsMC0xLjU4OC0xLjU4N0gxMS4zYTEuNiwxLjYsMCwwLDAtMS42LDEuNnYzLjIyOWEuNDI0LjQyNCwwLDAsMS0uMTM0LjMxMkw2LjU2NSwxNS4yODhhLjU0My41NDMsMCwwLDAtLjE1MS4zODR2MS40NzFhLjM1Ni4zNTYsMCwwLDAsLjM1Ni4zNTdIOS4wNDVhLjIwNS4yMDUsMCwwLDAsLjIwNS0uMnYtLjYwN2EuMjIzLjIyMywwLDAsMSwuMjIzLS4yMjNoLjYwNmEuMi4yLDAsMCwwLC4yMDUtLjJ2LS42MTVhLjIyMy4yMjMsMCwwLDEsLjIyMy0uMjIzaC42MDdhLjIwNS4yMDUsMCwwLDAsLjIwNS0uMjA1di0uODY1bC4xNi0uMTUyWm0uMzMtNS43ODhhLjkuOSwwLDEsMS0xLjI3NSwwQS45LjksMCwwLDEsMTUuNSw4LjQxMloiIGZpbGw9IiM1MGU2ZmYiIC8+PHBhdGggaWQ9ImY2MTU2YWQ2LTAwZjQtNGQ0MC04MmJiLWJhYThhMjc5NDFlMyIgZD0iTTcuMDgzLDE1LjczNGgwYS4yLjIsMCwwLDAsLjIwNS4xODcuMi4yLDAsMCwwLC4xMzQtLjA2MmwyLjQ3LTIuNGEuMjIuMjIsMCwwLDAsLjA2Mi0uMTg3aDBhLjIuMiwwLDAsMC0uMzMtLjA4OWwtMi40NzksMi40QS4yNDguMjQ4LDAsMCwwLDcuMDgzLDE1LjczNFoiIGZpbGw9IiNmZmYiIC8+PHJlY3QgaWQ9ImI3OGVjNWEzLTE0YjQtNGE1Zi1iNmZmLTE4MDc1YTFhYmUyMCIgeD0iMTMuMDQ4IiB5PSI4LjMzNCIgd2lkdGg9IjAuNTM1IiBoZWlnaHQ9IjQuNTIxIiByeD0iMC4yNDEiIHRyYW5zZm9ybT0idHJhbnNsYXRlKC0zLjU5MSAxMi41MTkpIHJvdGF0ZSgtNDUpIiBmaWxsPSIjZmZmIiAvPjxyZWN0IGlkPSJiYzdlYWYzZi0yNmJlLTQzYjctOTcyNS04ZDYwYTQ2ODM2MzciIHg9IjEyLjQzNiIgeT0iOC45NDgiIHdpZHRoPSIwLjUzNSIgaGVpZ2h0PSI0LjUyMSIgcng9IjAuMjQxIiB0cmFuc2Zvcm09InRyYW5zbGF0ZSgtNC4yMDUgMTIuMjY1KSByb3RhdGUoLTQ1KSIgZmlsbD0iI2ZmZiIgLz48L2c+4oCLCjwvc3ZnPg==;fontSize=10;" parent="1" vertex="1">
          <mxGeometry x="875" y="225" width="50" height="50" as="geometry"/>
        </mxCell>
        <mxCell id="key_vault" value="Azure Key Vault" style="shape=image;verticalLabelPosition=bottom;labelBackgroundColor=none;verticalAlign=top;aspect=fixed;imageAspect=0;image=data:image/svg+xml,PHN2ZyBpZD0iZTQyNThhYWYtYWIzMi00NmQ3LWJjNDQtNjEyZmFmMWI2ZjBjIiB4bWxucz0iaHR0cDovL3d3dy53My5vcmcvMjAwMC9zdmciIHdpZHRoPSIxOCIgaGVpZ2h0PSIxOCIgdmlld0JveD0iMCAwIDE4IDE4Ij48ZGVmcz48bGluZWFyR3JhZGllbnQgaWQ9ImFkOTM1MjhjLWVkZjAtNGUxMy1hMDZhLWI0ZDE1ODdkMjM3NCIgeDE9IjkiIHkxPSI4LjExMiIgeDI9IjkiIHkyPSIxOS41IiBncmFkaWVudFRyYW5zZm9ybT0ibWF0cml4KDEsIDAsIDAsIC0xLCAwLCAyMCkiIGdyYWRpZW50VW5pdHM9InVzZXJTcGFjZU9uVXNlIj48c3RvcCBvZmZzZXQ9IjAuMjUxIiBzdG9wLWNvbG9yPSIjMzJiZWRkIiAvPjxzdG9wIG9mZnNldD0iMC44MyIgc3RvcC1jb2xvcj0iIzUwZTZmZiIgLz48L2xpbmVhckdyYWRpZW50PjxsaW5lYXJHcmFkaWVudCBpZD0iZjJjMjI0Y2EtYTAyOC00MjJhLTg5ODctYTMwM2I4ODk0ODlhIiB4MT0iLTEyMC45NzEiIHkxPSIxMjc5LjI3IiB4Mj0iLTEyMC45NzEiIHkyPSIxMjkzLjExNSIgZ3JhZGllbnRUcmFuc2Zvcm09Im1hdHJpeCgwLjcwNywgMC43MDcsIDAuNzA3LCAtMC43MDcsIC04MTUuMzk1LCAxMDA0LjI3KSIgZ3JhZGllbnRVbml0cz0idXNlclNwYWNlT25Vc2UiPjxzdG9wIG9mZnNldD0iMCIgc3RvcC1jb2xvcj0iIzAwNzhkNCIgLz48c3RvcCBvZmZzZXQ9IjAuMTQyIiBzdG9wLWNvbG9yPSIjMDc3YmQ2IiAvPjxzdG9wIG9mZnNldD0iMC4zNDUiIHN0b3AtY29sb3I9IiMxYTgzZGIiIC8+PHN0b3Agb2Zmc2V0PSIwLjU4NCIgc3RvcC1jb2xvcj0iIzM5OTBlNCIgLz48c3RvcCBvZmZzZXQ9IjAuODIiIHN0b3AtY29sb3I9IiM1ZWEwZWYiIC8+PC9saW5lYXJHcmFkaWVudD48L2RlZnM+PGc+PHBhdGggZD0iTTE3LjAyNiw4LjMxNEEzLjYxMiwzLjYxMiwwLDAsMCwxMy45LDQuODQ1LDQuNTQ4LDQuNTQ4LDAsMCwwLDkuMjE0LjUsNC42NjUsNC42NjUsMCwwLDAsNC43NTUsMy41NDMsNC4zLDQuMywwLDAsMCwuOTc0LDcuNjgxYTQuMzcsNC4zNywwLDAsMCw0LjUyMSw0LjJoNy43MTRhLjcxNS43MTUsMCwwLDAsLjIsMEEzLjY0NywzLjY0NywwLDAsMCwxNy4wMjYsOC4zMTRaIiBmaWxsPSJ1cmwoI2FkOTM1MjhjLWVkZjAtNGUxMy1hMDZhLWI0ZDE1ODdkMjM3NCkiIC8+PHBhdGggaWQ9ImY4NTVhY2M0LTMwOTUtNDE5NC04ZjExLTI2OTM2ZGUwZGVhMiIgZD0iTTEyLjMsMTAuOTU0YTEuNiwxLjYsMCwwLDAsMS42LTEuNmgwVjUuNDc4QTEuNTcsMS41NywwLDAsMCwxMi4zMzUsMy45SDguNDI5QTEuNiwxLjYsMCwwLDAsNi44NDIsNS41djMuMjJBLjQ2NC40NjQsMCwwLDEsNi43MDgsOUwzLjcsMTIuMDQyYS41MzcuNTM3LDAsMCwwLS4xNjEuMzg0djEuNDYyYS4zNTcuMzU3LDAsMCwwLC4zNDguMzY2SDYuMTczYS4yMDUuMjA1LDAsMCwwLC4yMDUtLjIwNVYxMy40NmEuMjMyLjIzMiwwLDAsMSwuMjMyLS4yMzJoLjYwNmEuMjA1LjIwNSwwLDAsMCwuMjA2LS4yMDVWMTIuMzlhLjIyMi4yMjIsMCwwLDEsLjIyMi0uMjIzaC42MDdhLjIwNS4yMDUsMCwwLDAsLjIxNC0uMnYtLjg0N2wuMTUyLS4xNjFabS4zMzktNS44YS45MTEuOTExLDAsMSwxLS4wMjQtLjAyM1oiIGZpbGw9InVybCgjZjJjMjI0Y2EtYTAyOC00MjJhLTg5ODctYTMwM2I4ODk0ODlhKSIgLz48cGF0aCBpZD0iYjIzOTYxOTctNWMxMi00Yzc2LTllYTEtMTM5NGU2NDYzMGJkIiBkPSJNMTUuMTcxLDE0LjJhMS41ODcsMS41ODcsMCwwLDAsMS41ODgtMS41ODdoMFY4LjczM2ExLjU4OCwxLjU4OCwwLDAsMC0xLjU4OC0xLjU4N0gxMS4zYTEuNiwxLjYsMCwwLDAtMS42LDEuNnYzLjIyOWEuNDI0LjQyNCwwLDAsMS0uMTM0LjMxMkw2LjU2NSwxNS4yODhhLjU0My41NDMsMCwwLDAtLjE1MS4zODR2MS40NzFhLjM1Ni4zNTYsMCwwLDAsLjM1Ni4zNTdIOS4wNDVhLjIwNS4yMDUsMCwwLDAsLjIwNS0uMnYtLjYwN2EuMjIzLjIyMywwLDAsMSwuMjIzLS4yMjNoLjYwNmEuMi4yLDAsMCwwLC4yMDUtLjJ2LS42MTVhLjIyMy4yMjMsMCwwLDEsLjIyMy0uMjIzaC42MDdhLjIwNS4yMDUsMCwwLDAsLjIwNS0uMjA1di0uODY1bC4xNi0uMTUyWm0uMzMtNS43ODhhLjkuOSwwLDEsMS0xLjI3NSwwQS45LjksMCwwLDEsMTUuNSw4LjQxMloiIGZpbGw9IiM1MGU2ZmYiIC8+PHBhdGggaWQ9ImY2MTU2YWQ2LTAwZjQtNGQ0MC04MmJiLWJhYThhMjc5NDFlMyIgZD0iTTcuMDgzLDE1LjczNGgwYS4yLjIsMCwwLDAsLjIwNS4xODcuMi4yLDAsMCwwLC4xMzQtLjA2MmwyLjQ3LTIuNGEuMjIuMjIsMCwwLDAsLjA2Mi0uMTg3aDBhLjIuMiwwLDAsMC0uMzMtLjA4OWwtMi40NzksMi40QS4yNDguMjQ4LDAsMCwwLDcuMDgzLDE1LjczNFoiIGZpbGw9IiNmZmYiIC8+PHJlY3QgaWQ9ImI3OGVjNWEzLTE0YjQtNGE1Zi1iNmZmLTE4MDc1YTFhYmUyMCIgeD0iMTMuMDQ4IiB5PSI4LjMzNCIgd2lkdGg9IjAuNTM1IiBoZWlnaHQ9IjQuNTIxIiByeD0iMC4yNDEiIHRyYW5zZm9ybT0idHJhbnNsYXRlKC0zLjU5MSAxMi41MTkpIHJvdGF0ZSgtNDUpIiBmaWxsPSIjZmZmIiAvPjxyZWN0IGlkPSJiYzdlYWYzZi0yNmJlLTQzYjctOTcyNS04ZDYwYTQ2ODM2MzciIHg9IjEyLjQzNiIgeT0iOC45NDgiIHdpZHRoPSIwLjUzNSIgaGVpZ2h0PSI0LjUyMSIgcng9IjAuMjQxIiB0cmFuc2Zvcm09InRyYW5zbGF0ZSgtNC4yMDUgMTIuMjY1KSByb3RhdGUoLTQ1KSIgZmlsbD0iI2ZmZiIgLz48L2c+4oCLCjwvc3ZnPg==;fontSize=10;" parent="1" vertex="1">
          <mxGeometry x="875" y="325" width="50" height="50" as="geometry"/>
        </mxCell>
        <mxCell id="azure_monitor" value="Azure Monitor" style="shape=image;verticalLabelPosition=bottom;labelBackgroundColor=none;verticalAlign=top;aspect=fixed;imageAspect=0;image=data:image/svg+xml,PHN2ZyBpZD0idXVpZC0yYTU3ZDNkMC00OTkxLTQ2NmUtOWE5NC1jODk3NDgxNzNiOGQiIHhtbG5zPSJodHRwOi8vd3d3LnczLm9yZy8yMDAwL3N2ZyIgd2lkdGg9IjE4IiBoZWlnaHQ9IjE4IiB2aWV3Qm94PSIwIDAgMTggMTgiPjxkZWZzPjxsaW5lYXJHcmFkaWVudCBpZD0idXVpZC05NDY4Yjg2NS1lYWM0LTRmZjItYjViNi0yYmFiZmIzMzc0ZjIiIHgxPSI1LjkwOSIgeTE9IjIuNjkxIiB4Mj0iNS45MDkiIHkyPSIxMy4yMzkiIGdyYWRpZW50VW5pdHM9InVzZXJTcGFjZU9uVXNlIj48c3RvcCBvZmZzZXQ9IjAiIHN0b3AtY29sb3I9IiM1ZWEwZWYiIC8+PHN0b3Agb2Zmc2V0PSIuMTc4IiBzdG9wLWNvbG9yPSIjNTU5Y2VjIiAvPjxzdG9wIG9mZnNldD0iLjQ3MiIgc3RvcC1jb2xvcj0iIzNjOTFlNSIgLz48c3RvcCBvZmZzZXQ9Ii44NDQiIHN0b3AtY29sb3I9IiMxMzgwZGEiIC8+PHN0b3Agb2Zmc2V0PSIxIiBzdG9wLWNvbG9yPSIjMDA3OGQ0IiAvPjwvbGluZWFyR3JhZGllbnQ+PGxpbmVhckdyYWRpZW50IGlkPSJ1dWlkLTNhZDFmYjFjLWI1NzYtNDIwMy04YWZjLWEwYjY1MjAwMmQzOSIgeDE9IjEwLjEyIiB5MT0iMTMuMjk0IiB4Mj0iMTAuMTIiIHkyPSI3LjgxOSIgZ3JhZGllbnRVbml0cz0idXNlclNwYWNlT25Vc2UiPjxzdG9wIG9mZnNldD0iMCIgc3RvcC1jb2xvcj0iIzQ2YTBkZSIgLz48c3RvcCBvZmZzZXQ9IjEiIHN0b3AtY29sb3I9IiM4ZGM4ZTgiIC8+PC9saW5lYXJHcmFkaWVudD48bGluZWFyR3JhZGllbnQgaWQ9InV1aWQtOGJmOTJiYzItYWY1MS00ODYwLTk1YjEtOTZhYzk1MDk2MWU5IiB4MT0iMTUuOTYiIHkxPSIxMy4yOTQiIHgyPSIxNS45NiIgeTI9IjcuODE5IiBncmFkaWVudFVuaXRzPSJ1c2VyU3BhY2VPblVzZSI+PHN0b3Agb2Zmc2V0PSIwIiBzdG9wLWNvbG9yPSIjNDZhMGRlIiAvPjxzdG9wIG9mZnNldD0iMSIgc3RvcC1jb2xvcj0iIzhkYzhlOCIgLz48L2xpbmVhckdyYWRpZW50PjxsaW5lYXJHcmFkaWVudCBpZD0idXVpZC0zOWViNDlhZS00MzcxLTQwYWYtYmU1Ny00MDJkMjZjZWY5MjMiIHgxPSIxMy4wNCIgeTE9IjEyLjU2NCIgeDI9IjEzLjA0IiB5Mj0iOC41NDkiIGdyYWRpZW50VW5pdHM9InVzZXJTcGFjZU9uVXNlIj48c3RvcCBvZmZzZXQ9IjAiIHN0b3AtY29sb3I9IiMxNTVlYTEiIC8+PHN0b3Agb2Zmc2V0PSIxIiBzdG9wLWNvbG9yPSIjMDA3OGQ0IiAvPjwvbGluZWFyR3JhZGllbnQ+PC9kZWZzPjxwYXRoIGQ9Ik03LjY1MiwxMy4xNjVjLjAwNC0uMzUyLjAxNC0uNTguMDMtLjY3Ny4xMjMtLjczMy42MDItMS4yOTQsMS4yNDQtMS41MDIuMDA1LS4wMDIuMDA4LS4wMDYuMDA4LS4wMTF2LTIuMzc3YzAtLjYwMi40MjctMS4xNDUsMS4wMjQtMS4yMjQuNTYtLjA3NSwxLjA1OC4yNDUsMS4yNTcuNzE5aC40MDdsLS40ODQtLjQ4NWMtLjMyNi0uMzI2LS4zMjYtLjg1NCwwLTEuMTc5bC42OC0uNjgxYy0uNTE2LTEuODE2LTIuMjEzLTMuMTE2LTQuMTgxLTMuMDU1LTEuODM1LS4wMzMtMy40OSwxLjA5Ni00LjEyOSwyLjgxNi0xLjk1OS4yMzctMy40NSwxLjg3LTMuNTA4LDMuODQyLjA4OCwyLjIyOCwxLjk2MiwzLjk2Niw0LjE5LDMuODg1LjEyNCwwLC4yNTEtLjAwNi4zNjgtLjAxNmgzLjA5NmMwLS4wMTktLjAwMy0uMDM3LS4wMDMtLjA1NloiIGZpbGw9InVybCgjdXVpZC05NDY4Yjg2NS1lYWM0LTRmZjItYjViNi0yYmFiZmIzMzc0ZjIpIiAvPjxnPjxwYXRoIGQ9Ik0xNC45MTUsMTMuOTU4bC0xLjA5MS0xLjA5MWMtLjA3NC0uMDc0LS4xODUtLjA5Ni0uMjgyLS4wNTZzLS4xNi4xMzQtLjE2LjIzOXYuNjRoLTMuOTAzYy0uMjg5LDAtLjUyMy0uMjM1LS41MjMtLjUyMywwLS4wOTEuMDA2LS40MjcuMDE0LS40OC4wNTItLjMuMjQ3LS40ODcuNTA5LS40ODdoLjQ1OGwtLjA2Mi0uMjNjLS4wMzktLjE0Ni0uMDY3LS4yOTgtLjA4NC0uNDUybC0uMDE5LS4xNjNoLS4yOTRjLS42NzQuMDAyLTEuMjI4LjQ5OS0xLjM0NiwxLjIwOS0uMDIuMTE0LS4wMjQuNjAyLS4wMjQuNjA3LDAsLjM2Ni4xNDMuNzEuNDAyLjk2OS4yNTkuMjU4LjYwMy40MDEuOTY4LjQwMWgzLjkwNHYuNjkyYzAsLjEwNS4wNjMuMTk5LjE2LjIzOS4wMzIuMDEzLjA2Ni4wMi4wOTkuMDIuMDY3LDAsLjEzMy0uMDI2LjE4My0uMDc2bDEuMDkxLTEuMDkxYy4xMDEtLjEwMS4xMDEtLjI2NiwwLS4zNjdaIiBmaWxsPSIjMTU1ZWExIiAvPjxwYXRoIGQ9Ik0xNy43ODEsNy4wMjFjLS4yNTktLjI1OC0uNjAzLS40MDEtLjk2OC0uNDAxaC0zLjkwNHYtLjY5MmMwLS4xMDUtLjA2My0uMTk5LS4xNi0uMjM5LS4wOTgtLjA0LS4yMDgtLjAxOC0uMjgyLjA1NmwtMS4wOTEsMS4wOTFjLS4xMDEuMTAxLS4xMDEuMjY2LDAsLjM2N2wxLjA5MSwxLjA5MWMuMDc0LjA3NS4xODUuMDk3LjI4Mi4wNTYuMDk3LS4wNC4xNi0uMTM0LjE2LS4yMzl2LS42NGgzLjkwM2MuMjg4LDAsLjUyMy4yMzUuNTIzLjUyMywwLC4wODUtLjAwNy40MjktLjAxNC40OC0uMDUyLjMwMS0uMjQ3LjQ4Ny0uNTA5LjQ4N2gtLjQ1OGwuMDYxLjIzYy4wMzkuMTQ5LjA2OC4zMDIuMDg0LjQ1M2wuMDE5LjE2M2guMjk0Yy42NzQtLjAwMiwxLjIyOC0uNDk5LDEuMzQ3LTEuMjEuMDE4LS4xMS4wMjQtLjYuMDI0LS42MDYsMC0uMzY2LS4xNDMtLjcxLS40MDItLjk2OVoiIGZpbGw9IiMxNTVlYTEiIC8+PGc+PHBhdGggZD0iTTkuMzksOC41NDljMC0uNDI3LjM2Ni0uNzY4LjgwMi0uNzI3LjM4LjAzNi42NTguMzc3LjY1OC43NTh2My45NTJjMCwuMzgxLS4yNzkuNzIyLS42NTguNzU4LS40MzUuMDQyLS44MDItLjMtLjgwMi0uNzI3di00LjAxNVoiIGZpbGw9InVybCgjdXVpZC0zYWQxZmIxYy1iNTc2LTQyMDMtOGFmYy1hMGI2NTIwMDJkMzkpIiAvPjxwYXRoIGQ9Ik0xNS4yMyw4LjU0OWMwLS40MjcuMzY2LS43NjguODAyLS43MjcuMzguMDM2LjY1OC4zNzcuNjU4Ljc1OHYzLjk1MmMwLC4zODEtLjI3OS43MjItLjY1OC43NTgtLjQzNS4wNDItLjgwMi0uMy0uODAyLS43Mjd2LTQuMDE1WiIgZmlsbD0idXJsKCN1dWlkLThiZjkyYmMyLWFmNTEtNDg2MC05NWIxLTk2YWM5NTA5NjFlOSkiIC8+PHJlY3QgeD0iMTEuMzk4IiB5PSI4LjU0OSIgd2lkdGg9IjMuMjg1IiBoZWlnaHQ9IjQuMDE1IiBmaWxsPSJ1cmwoI3V1aWQtMzllYjQ5YWUtNDM3MS00MGFmLWJlNTctNDAyZDI2Y2VmOTIzKSIgLz48L2c+PC9nPjwvc3ZnPg==;fontSize=10;" parent="1" vertex="1">
          <mxGeometry x="875" y="425" width="50" height="50" as="geometry"/>
        </mxCell>
        <mxCell id="event_hubs" value="Azure Event Hubs" style="shape=image;verticalLabelPosition=bottom;labelBackgroundColor=none;verticalAlign=top;aspect=fixed;imageAspect=0;image=data:image/svg+xml,PHN2ZyB4bWxucz0iaHR0cDovL3d3dy53My5vcmcvMjAwMC9zdmciIHdpZHRoPSIxOCIgaGVpZ2h0PSIxOCIgdmlld0JveD0iMCAwIDE4IDE4Ij48ZGVmcz48bGluZWFyR3JhZGllbnQgaWQ9ImEyMDU0N2U1LWQ2YWYtNDU2Yi1hZmJjLTA1ZDIyZmY4Y2I5ZCIgeDE9IjQ1ODkuNzIiIHkxPSItNTE4MC4wMiIgeDI9IjQ1ODkuNzIiIHkyPSItNTE4NC4yMSIgZ3JhZGllbnRUcmFuc2Zvcm09Im1hdHJpeCgwLjUsIDAsIDAsIC0wLjUsIC0yMjc1LjMxLCAtMjU4OS4zMikiIGdyYWRpZW50VW5pdHM9InVzZXJTcGFjZU9uVXNlIj48c3RvcCBvZmZzZXQ9IjAiIHN0b3AtY29sb3I9IiNjNjlhZWIiIC8+PHN0b3Agb2Zmc2V0PSIxIiBzdG9wLWNvbG9yPSIjNmY0YmIyIiAvPjwvbGluZWFyR3JhZGllbnQ+PGxpbmVhckdyYWRpZW50IGlkPSJhNDc0NWY1MS01ZTc1LTQxMjYtODEyZC02YmI4YTUxMzBlMTYiIHgxPSI0NTg3Ljk5IiB5MT0iLTUxODguNDciIHgyPSI0NTg3Ljk5IiB5Mj0iLTUxOTIuNjUiIGhyZWY9IiNhMjA1NDdlNS1kNmFmLTQ1NmItYWZiYy0wNWQyMmZmOGNiOWQiIC8+PC9kZWZzPjx0aXRsZT5JY29uLWludGVncmF0aW9uLTIyMTwvdGl0bGU+PGc+PGcgaWQ9ImIzMGIwYmQ1LWU0ZDItNDU2Yi04ZDQ5LWMyZGYyMDIwMDkxMiI+PHBhdGggaWQ9ImI1MTg3OGI1LThkNTAtNGI4Yi1iYzQ4LTc0ZjVmNzMxNWE5OSIgZD0iTTEyLjcsOC4xNXYtLjZIOC4xOEw2LjA2LDkuNjZINC41TDguMTIsNmgyLjQ3VjUuNDNINy44N0wzLjY1LDkuNjZoLS42di42SDQuODZMNywxMi4zN0gxMi4xdi0uNkg3LjIyTDUuNzEsMTAuMjZIOS4zOHYtLjZINi45MmwxLjUtMS41MVoiIGZpbGw9IiMzMmJlZGQiIC8+PGNpcmNsZSBpZD0iYWQwZWQ0ZWItY2Q1Zi00Y2MwLWJkMTktMjgzMGQyN2VjODA2IiBjeD0iOS45OCIgY3k9IjkuOTYiIHI9IjAuODciIGZpbGw9IiNmZmYiIC8+PGNpcmNsZSBpZD0iYTI3NDZiNGEtMGFlNC00MzA4LTg3NmUtNWI4MjY1N2UxODcyIiBjeD0iMTAuODkiIGN5PSI1Ljc0IiByPSIwLjg3IiBmaWxsPSIjZmZmIiAvPjxjaXJjbGUgaWQ9ImZjMzMxNmUwLTcwOTQtNGNlMC05OWVkLTQzZjFlNmU0MzUwYyIgY3g9IjEzIiBjeT0iNy44NSIgcj0iMC44NyIgZmlsbD0iI2ZmZiIgLz48Y2lyY2xlIGlkPSJiNWQxODQ0My1kNTBlLTQ1OTAtOGU4Zi04MGI2YTdmNmQzNDgiIGN4PSIxMi4xIiBjeT0iMTIuMDciIHI9IjAuODciIGZpbGw9IiNmZmYiIC8+PGNpcmNsZSBjeD0iMTAuODYiIGN5PSI1Ljc0IiByPSIxLjA1IiBmaWxsPSIjNTBlNmZmIiAvPjxjaXJjbGUgY3g9IjEyLjk3IiBjeT0iNy44NSIgcj0iMS4wNSIgZmlsbD0idXJsKCNhMjA1NDdlNS1kNmFmLTQ1NmItYWZiYy0wNWQyMmZmOGNiOWQpIiAvPjxjaXJjbGUgY3g9IjEyLjEiIGN5PSIxMi4wNyIgcj0iMS4wNSIgZmlsbD0idXJsKCNhNDc0NWY1MS01ZTc1LTQxMjYtODEyZC02YmI4YTUxMzBlMTYpIiAvPjxjaXJjbGUgY3g9IjkuOTgiIGN5PSI5Ljk2IiByPSIxLjA1IiBmaWxsPSIjNTBlNmZmIiAvPjxnPjxwYXRoIGQ9Ik0xLjA3LDEuNDNIMi4zNmEwLDAsMCwwLDEsMCwwVjVhLjI5LjI5LDAsMCwxLS4yOS4yOUguNzlBLjI5LjI5LDAsMCwxLC41LDVWMkEuNTcuNTcsMCwwLDEsMS4wNywxLjQzWiIgZmlsbD0iIzk5OSIgLz48cGF0aCBkPSJNMS4wNywxLjQzSDIuMzZhMCwwLDAsMCwxLDAsMFY1YS4yOS4yOSwwLDAsMS0uMjkuMjlILjc5QS4yOS4yOSwwLDAsMSwuNSw1VjJBLjU3LjU3LDAsMCwxLDEuMDcsMS40M1oiIGZpbGw9IiM5OTkiIG9wYWNpdHk9IjAuNSIgLz48L2c+PGc+PHBhdGggZD0iTTE1LjY0LDEuNDNoMS4yOUEuNTcuNTcsMCwwLDEsMTcuNSwyVjVhLjI5LjI5LDAsMCwxLS4yOS4yOUgxNS45MkEuMjkuMjksMCwwLDEsMTUuNjQsNVYxLjQzQTAsMCwwLDAsMSwxNS42NCwxLjQzWiIgZmlsbD0iIzk5OSIgLz48cGF0aCBkPSJNMTUuNjQsMS40M2gxLjI5QS41Ny41NywwLDAsMSwxNy41LDJWNWEuMjkuMjksMCwwLDEtLjI5LjI5SDE1LjkyQS4yOS4yOSwwLDAsMSwxNS42NCw1VjEuNDNBMCwwLDAsMCwxLDE1LjY0LDEuNDNaIiBmaWxsPSIjOTk5IiBvcGFjaXR5PSIwLjUiIC8+PC9nPjxwYXRoIGQ9Ik04LjY2LTYuMTZIOS45MWEwLDAsMCwwLDEsMCwwdjE3YTAsMCwwLDAsMSwwLDBIOC42NmEuNTcuNTcsMCwwLDEtLjU3LS41N1YtNS42QS41Ny41NywwLDAsMSw4LjY2LTYuMTZaIiB0cmFuc2Zvcm09InRyYW5zbGF0ZSgxMS4zNCAtNi42Nikgcm90YXRlKDkwKSIgZmlsbD0iIzk0OTQ5NCIgLz48Zz48cGF0aCBkPSJNLjc5LDEyLjY4SDIuMDhhLjI5LjI5LDAsMCwxLC4yOS4yOXYzLjZhMCwwLDAsMCwxLDAsMEgxLjA3QS41Ny41NywwLDAsMSwuNSwxNlYxM0EuMjkuMjksMCwwLDEsLjc5LDEyLjY4WiIgZmlsbD0iIzk5OSIgLz48cGF0aCBkPSJNLjc5LDEyLjY4SDIuMDhhLjI5LjI5LDAsMCwxLC4yOS4yOXYzLjZhMCwwLDAsMCwxLDAsMEgxLjA3QS41Ny41NywwLDAsMSwuNSwxNlYxM0EuMjkuMjksMCwwLDEsLjc5LDEyLjY4WiIgZmlsbD0iIzk5OSIgb3BhY2l0eT0iMC41IiAvPjwvZz48Zz48cGF0aCBkPSJNMTUuOTIsMTIuNjhoMS4yOWEuMjkuMjksMCwwLDEsLjI5LjI5djNhLjU3LjU3LDAsMCwxLS41Ny41N0gxNS42NGEwLDAsMCwwLDEsMCwwVjEzQS4yOS4yOSwwLDAsMSwxNS45MiwxMi42OFoiIGZpbGw9IiM5OTkiIC8+PHBhdGggZD0iTTE1LjkyLDEyLjY4aDEuMjlhLjI5LjI5LDAsMCwxLC4yOS4yOXYzYS41Ny41NywwLDAsMS0uNTcuNTdIMTUuNjRhMCwwLDAsMCwxLDAsMFYxM0EuMjkuMjksMCwwLDEsMTUuOTIsMTIuNjhaIiBmaWxsPSIjOTk5IiBvcGFjaXR5PSIwLjUiIC8+PC9nPjxwYXRoIGQ9Ik04LjY2LDcuMTZIOS45MWEwLDAsMCwwLDEsMCwwdjE3YTAsMCwwLDAsMSwwLDBIOC42NmEuNTcuNTcsMCwwLDEtLjU3LS41N1Y3LjczQS41Ny41NywwLDAsMSw4LjY2LDcuMTZaIiB0cmFuc2Zvcm09InRyYW5zbGF0ZSgtNi42NiAyNC42Nikgcm90YXRlKC05MCkiIGZpbGw9IiM5NDk0OTQiIC8+PC9nPjwvZz48L3N2Zz4=;fontSize=10;" parent="1" vertex="1">
          <mxGeometry x="875" y="525" width="50" height="50" as="geometry"/>
        </mxCell>
        <mxCell id="notifications" value="Notifications" style="rounded=1;whiteSpace=wrap;html=1;fillColor=#9C27B0;strokeColor=#9C27B0;fontColor=#FFFFFF;fontSize=10;" parent="1" vertex="1">
          <mxGeometry x="860" y="630" width="80" height="40" as="geometry"/>
        </mxCell>
        <mxCell id="connection_0" value="IoT Telemetry" style="edgeStyle=orthogonalEdgeStyle;rounded=0;orthogonalLoop=1;jettySize=auto;html=1;strokeColor=#000000;" parent="1" source="raspberry_pi" target="iot_hub" edge="1">
          <mxGeometry relative="1" as="geometry"/>
        </mxCell>
        <mxCell id="connection_1" value="Batch Ingestion" style="edgeStyle=orthogonalEdgeStyle;rounded=0;orthogonalLoop=1;jettySize=auto;html=1;strokeColor=#000000;" parent="1" source="iot_hub" target="data_lake_bronze" edge="1">
          <mxGeometry relative="1" as="geometry"/>
        </mxCell>
        <mxCell id="connection_2" value="Streaming" style="edgeStyle=orthogonalEdgeStyle;rounded=0;orthogonalLoop=1;jettySize=auto;html=1;dashed=1;strokeColor=#000000;" parent="1" source="iot_hub" target="stream_analytics" edge="1">
          <mxGeometry relative="1" as="geometry"/>
        </mxCell>
        <mxCell id="connection_3" value="ETL Process" style="edgeStyle=orthogonalEdgeStyle;rounded=0;orthogonalLoop=1;jettySize=auto;html=1;strokeColor=#000000;" parent="1" source="data_lake_bronze" target="databricks" edge="1">
          <mxGeometry relative="1" as="geometry"/>
        </mxCell>
        <mxCell id="connection_4" value="Transformed Data" style="edgeStyle=orthogonalEdgeStyle;rounded=0;orthogonalLoop=1;jettySize=auto;html=1;strokeColor=#000000;" parent="1" source="databricks" target="data_lake_silver" edge="1">
          <mxGeometry relative="1" as="geometry"/>
        </mxCell>
        <mxCell id="connection_5" value="Real-time Processing" style="edgeStyle=orthogonalEdgeStyle;rounded=0;orthogonalLoop=1;jettySize=auto;html=1;dashed=1;strokeColor=#000000;" parent="1" source="stream_analytics" target="data_lake_silver" edge="1">
          <mxGeometry relative="1" as="geometry"/>
        </mxCell>
        <mxCell id="connection_6" value="Training Data" style="edgeStyle=orthogonalEdgeStyle;rounded=0;orthogonalLoop=1;jettySize=auto;html=1;strokeColor=#000000;" parent="1" source="data_lake_silver" target="databricks_ml" edge="1">
          <mxGeometry relative="1" as="geometry"/>
        </mxCell>
        <mxCell id="connection_7" value="Models" style="edgeStyle=orthogonalEdgeStyle;rounded=0;orthogonalLoop=1;jettySize=auto;html=1;strokeColor=#000000;" parent="1" source="databricks_ml" target="azure_ml" edge="1">
          <mxGeometry relative="1" as="geometry"/>
        </mxCell>
        <mxCell id="connection_8" value="Deployed Models" style="edgeStyle=orthogonalEdgeStyle;rounded=0;orthogonalLoop=1;jettySize=auto;html=1;strokeColor=#000000;" parent="1" source="azure_ml" target="iot_edge" edge="1">
          <mxGeometry relative="1" as="geometry"/>
        </mxCell>
        <mxCell id="connection_9" value="Insights" style="edgeStyle=orthogonalEdgeStyle;rounded=0;orthogonalLoop=1;jettySize=auto;html=1;strokeColor=#000000;" parent="1" source="iot_edge" target="streamlit" edge="1">
          <mxGeometry relative="1" as="geometry"/>
        </mxCell>
        <mxCell id="connection_10" value="Analytics Data" style="edgeStyle=orthogonalEdgeStyle;rounded=0;orthogonalLoop=1;jettySize=auto;html=1;strokeColor=#000000;" parent="1" source="data_lake_silver" target="synapse" edge="1">
          <mxGeometry relative="1" as="geometry"/>
        </mxCell>
        <mxCell id="connection_11" value="Visualizations" style="edgeStyle=orthogonalEdgeStyle;rounded=0;orthogonalLoop=1;jettySize=auto;html=1;strokeColor=#000000;" parent="1" source="synapse" target="streamlit" edge="1">
          <mxGeometry relative="1" as="geometry"/>
        </mxCell>
        <mxCell id="connection_12" value="Edge Models" style="edgeStyle=orthogonalEdgeStyle;rounded=0;orthogonalLoop=1;jettySize=auto;html=1;dashed=1;strokeColor=#000000;" parent="1" source="iot_edge" target="raspberry_pi" edge="1">
          <mxGeometry relative="1" as="geometry"/>
        </mxCell>
        <mxCell id="connection_13" value="Authentication" style="edgeStyle=orthogonalEdgeStyle;rounded=0;orthogonalLoop=1;jettySize=auto;html=1;dashed=1;strokeColor=#6c8ebf;" parent="1" source="azure_ad" target="databricks" edge="1">
          <mxGeometry relative="1" as="geometry"/>
        </mxCell>
        <mxCell id="connection_14" value="Authentication" style="edgeStyle=orthogonalEdgeStyle;rounded=0;orthogonalLoop=1;jettySize=auto;html=1;dashed=1;strokeColor=#6c8ebf;" parent="1" source="azure_ad" target="azure_ml" edge="1">
          <mxGeometry relative="1" as="geometry"/>
        </mxCell>
        <mxCell id="connection_15" value="Secrets" style="edgeStyle=orthogonalEdgeStyle;rounded=0;orthogonalLoop=1;jettySize=auto;html=1;dashed=1;strokeColor=#6c8ebf;" parent="1" source="key_vault" target="databricks" edge="1">
          <mxGeometry relative="1" as="geometry"/>
        </mxCell>
        <mxCell id="connection_16" value="Secrets" style="edgeStyle=orthogonalEdgeStyle;rounded=0;orthogonalLoop=1;jettySize=auto;html=1;dashed=1;strokeColor=#6c8ebf;" parent="1" source="key_vault" target="azure_ml" edge="1">
          <mxGeometry relative="1" as="geometry"/>
        </mxCell>
        <mxCell id="connection_17" value="Monitoring" style="edgeStyle=orthogonalEdgeStyle;rounded=0;orthogonalLoop=1;jettySize=auto;html=1;dashed=1;strokeColor=#6c8ebf;" parent="1" source="azure_monitor" target="iot_hub" edge="1">
          <mxGeometry relative="1" as="geometry"/>
        </mxCell>
        <mxCell id="connection_18" value="Monitoring" style="edgeStyle=orthogonalEdgeStyle;rounded=0;orthogonalLoop=1;jettySize=auto;html=1;dashed=1;strokeColor=#6c8ebf;" parent="1" source="azure_monitor" target="databricks" edge="1">
          <mxGeometry relative="1" as="geometry"/>
        </mxCell>
        <mxCell id="connection_19" value="Alerts" style="edgeStyle=orthogonalEdgeStyle;rounded=0;orthogonalLoop=1;jettySize=auto;html=1;dashed=1;strokeColor=#6c8ebf;" parent="1" source="azure_monitor" target="notifications" edge="1">
          <mxGeometry relative="1" as="geometry"/>
        </mxCell>
        <mxCell id="connection_20" value="Events" style="edgeStyle=orthogonalEdgeStyle;rounded=0;orthogonalLoop=1;jettySize=auto;html=1;dashed=1;strokeColor=#6c8ebf;" parent="1" source="event_hubs" target="databricks" edge="1">
          <mxGeometry relative="1" as="geometry"/>
        </mxCell>
        <mxCell id="legend_title" value="Legend" style="text;html=1;strokeColor=none;fillColor=none;align=center;verticalAlign=middle;whiteSpace=wrap;rounded=0;fontStyle=1" parent="1" vertex="1">
          <mxGeometry x="400" y="720" width="40" height="20" as="geometry"/>
        </mxCell>
        <mxCell id="legend_solid" value="" style="endArrow=classic;html=1;strokeColor=#000000;" parent="1" vertex="1">
          <mxGeometry width="50" height="50" relative="1" as="geometry">
            <mxPoint x="300" y="750" as="sourcePoint"/>
            <mxPoint x="350" y="750" as="targetPoint"/>
          </mxGeometry>
        </mxCell>
        <mxCell id="legend_solid_text" value="Batch Data Flow" style="text;html=1;strokeColor=none;fillColor=none;align=left;verticalAlign=middle;whiteSpace=wrap;rounded=0;" parent="1" vertex="1">
          <mxGeometry x="360" y="740" width="100" height="20" as="geometry"/>
        </mxCell>
        <mxCell id="legend_dashed" value="" style="endArrow=classic;html=1;strokeColor=#000000;dashed=1;" parent="1" vertex="1">
          <mxGeometry width="50" height="50" relative="1" as="geometry">
            <mxPoint x="300" y="780" as="sourcePoint"/>
            <mxPoint x="350" y="780" as="targetPoint"/>
          </mxGeometry>
        </mxCell>
        <mxCell id="legend_dashed_text" value="Real-time/Streaming Flow" style="text;html=1;strokeColor=none;fillColor=none;align=left;verticalAlign=middle;whiteSpace=wrap;rounded=0;" parent="1" vertex="1">
          <mxGeometry x="360" y="770" width="150" height="20" as="geometry"/>
        </mxCell>
        <mxCell id="legend_support" value="" style="endArrow=classic;html=1;strokeColor=#6c8ebf;dashed=1;" parent="1" vertex="1">
          <mxGeometry width="50" height="50" relative="1" as="geometry">
            <mxPoint x="300" y="810" as="sourcePoint"/>
            <mxPoint x="350" y="810" as="targetPoint"/>
          </mxGeometry>
        </mxCell>
        <mxCell id="legend_support_text" value="Supporting Service Connection" style="text;html=1;strokeColor=none;fillColor=none;align=left;verticalAlign=middle;whiteSpace=wrap;rounded=0;" parent="1" vertex="1">
          <mxGeometry x="360" y="800" width="170" height="20" as="geometry"/>
        </mxCell>
        <mxCell id="footer" value="© TBWA\SMP DLab - Project Scout Medallion Architecture" style="text;html=1;strokeColor=none;fillColor=none;align=center;verticalAlign=middle;whiteSpace=wrap;rounded=0;fontSize=10;fontStyle=2" parent="1" vertex="1">
          <mxGeometry x="250" y="830" width="600" height="20" as="geometry"/>
        </mxCell>
      <mxCell id="platinum-layer" value="💎 Feature Store &amp; RAG" style="rounded=1;whiteSpace=wrap;html=1;fillColor=#14B8A633;strokeColor=#14B8A6;shadow=1;;class=feature-store" vertex="1" parent="1"><mxGeometry x="700" y="170" width="140" height="60" as="geometry"/></mxCell><mxCell id="genai-insights" value="GenAI Insights" style="rounded=1;whiteSpace=wrap;html=1;fillColor=#FFCC99;strokeColor=#6c8ebf;dashed=1;" vertex="1" parent="1"><mxGeometry x="700" y="280" width="140" height="60" as="geometry"/></mxCell><mxCell id="insights-db" value="Insights DB" style="shape=cylinder3;whiteSpace=wrap;html=1;boundedLbl=1;backgroundOutline=1;size=15;fillColor=#f8cecc;strokeColor=#b85450;" vertex="1" parent="1"><mxGeometry x="860" y="280" width="80" height="60" as="geometry"/></mxCell><mxCell id="insights-dashboard" value="Dashboard &amp; BI" style="rounded=1;whiteSpace=wrap;html=1;fillColor=#10B98133;strokeColor=#10B981;;class=dashboard-bi" vertex="1" parent="1"><mxGeometry x="700" y="390" width="140" height="60" as="geometry"/></mxCell><mxCell id="edge-6" value="Data Flow" style="edgeStyle=orthogonalEdgeStyle;rounded=0;orthogonalLoop=1;jettySize=auto;html=1;exitX=0.5;exitY=0;entryX=0;entryY=0.5;" edge="1" parent="1" source="gold-layer" target="platinum-layer"><mxGeometry relative="1" as="geometry"/></mxCell><mxCell id="edge-7" value="" style="edgeStyle=orthogonalEdgeStyle;rounded=0;orthogonalLoop=1;jettySize=auto;html=1;exitX=0.5;exitY=1;entryX=0.5;entryY=0;" edge="1" parent="1" source="platinum-layer" target="genai-insights"><mxGeometry relative="1" as="geometry"/></mxCell><mxCell id="edge-8" value="Store" style="edgeStyle=orthogonalEdgeStyle;rounded=0;orthogonalLoop=1;jettySize=auto;html=1;exitX=1;exitY=0.5;entryX=0;entryY=0.5;" edge="1" parent="1" source="genai-insights" target="insights-db"><mxGeometry relative="1" as="geometry"/></mxCell><mxCell id="edge-9" value="Visualize" style="edgeStyle=orthogonalEdgeStyle;rounded=0;orthogonalLoop=1;jettySize=auto;html=1;exitX=0.5;exitY=1;entryX=0.5;entryY=0;" edge="1" parent="1" source="genai-insights" target="insights-dashboard"><mxGeometry relative="1" as="geometry"/></mxCell><mxCell id="orchestration_layer" value="⚙️ Data Orchestration" style="rounded=0;whiteSpace=wrap;html=1;fillColor=#dae8fc;strokeColor=#6c8ebf;align=left;verticalAlign=top;fontStyle=1;class=orchestration;" vertex="1" parent="1"><mxGeometry x="100" y="50" width="700" height="80" as="geometry"/></mxCell><mxCell id="data_factory" value="Azure Data Factory" style="shape=hexagon;perimeter=hexagonPerimeter2;whiteSpace=wrap;html=1;fixedSize=1;fillColor=#0078d4;strokeColor=#0078d4;fontColor=#FFFFFF;fontSize=10;" vertex="1" parent="1"><mxGeometry x="150" y="60" width="130" height="50" as="geometry"/></mxCell><mxCell id="event_hubs" value="Azure Event Hubs" style="shape=rhombus;perimeter=rhombusPerimeter;whiteSpace=wrap;html=1;align=center;fillColor=#5ea0ef;strokeColor=#0078d4;fontColor=#FFFFFF;fontSize=10;" vertex="1" parent="1"><mxGeometry x="350" y="60" width="130" height="50" as="geometry"/></mxCell><mxCell id="blob_storage" value="Azure Blob Storage" style="shape=cylinder3;whiteSpace=wrap;html=1;boundedLbl=1;backgroundOutline=1;size=15;fillColor=#0078d4;strokeColor=#0078d4;fontColor=#FFFFFF;fontSize=10;" vertex="1" parent="1"><mxGeometry x="550" y="60" width="130" height="50" as="geometry"/></mxCell><mxCell id="data_factory_to_bronze" value="batch" style="edgeStyle=orthogonalEdgeStyle;rounded=0;orthogonalLoop=1;jettySize=auto;html=1;exitX=0.5;exitY=1;entryX=0.2;entryY=0;class=batch-connector;" edge="1" parent="1" source="data_factory" target="bronze_layer"><mxGeometry relative="1" as="geometry"/></mxCell><mxCell id="event_hubs_to_bronze" value="stream" style="edgeStyle=orthogonalEdgeStyle;rounded=0;orthogonalLoop=1;jettySize=auto;html=1;exitX=0.5;exitY=1;entryX=0.5;entryY=0;class=stream-connector;dashed=1;" edge="1" parent="1" source="event_hubs" target="bronze_layer"><mxGeometry relative="1" as="geometry"/></mxCell><mxCell id="blob_storage_to_bronze" value="batch" style="edgeStyle=orthogonalEdgeStyle;rounded=0;orthogonalLoop=1;jettySize=auto;html=1;exitX=0.5;exitY=1;entryX=0.7;entryY=0;class=batch-connector;" edge="1" parent="1" source="blob_storage" target="bronze_layer"><mxGeometry relative="1" as="geometry"/></mxCell></root>
    </mxGraphModel>
  <mxStylesheet id="medallion-styles"><mxCellStyle for="raw-ingest staging curation feature-store dashboard-bi orchestration batch-connector stream-connector" styles="raw-ingest=fillColor=#FFCF0033;strokeColor=#FFCF00;
      staging=fillColor=#4B556333;strokeColor=#4B5563;
      curation=fillColor=#FFD70033;strokeColor=#FFD700;
      feature-store=fillColor=#14B8A633;strokeColor=#14B8A6;
      dashboard-bi=fillColor=#10B98133;strokeColor=#10B981;
      orchestration=fillColor=#dae8fc;strokeColor=#6c8ebf;
      batch-connector=strokeWidth=2;
      stream-connector=strokeWidth=2;strokeDasharray=3 3;"/></mxStylesheet></diagram>
</mxfile>